<?xml version="1.0" encoding="UTF-8"?>
<svg width="413px" height="107px" viewBox="0 0 413 107" version="1.1" xmlns="http://www.w3.org/2000/svg" xmlns:xlink="http://www.w3.org/1999/xlink">
    <!-- Generator: Sketch 52.6 (67491) - http://www.bohemiancoding.com/sketch -->
    <title>logo</title>
    <desc>Created with Sketch.</desc>
    <g id="Page-1" stroke="none" stroke-width="1" fill="none" fill-rule="evenodd">
        <g id="logo">
            <path d="M0.54,67.63 L33.1,34.88 L2.53,34.88 C2.03410715,34.8800652 1.55894827,34.6810423 1.21113055,34.3275843 C0.863312836,33.9741263 0.67195849,33.4958276 0.68,33 L0.68,25 C0.701824872,23.9955499 1.52532895,23.1943027 2.53,23.2 L48.38,23.2 C49.3846711,23.1943027 50.2081751,23.9955499 50.23,25 L50.23,34.37 C50.231652,34.8582218 50.0370799,35.3266361 49.69,35.67 L17.13,68.46 L49,68.46 C50.0217268,68.46 50.85,69.2882732 50.85,70.31 L50.85,78.31 C50.8444982,79.3278194 50.0178343,80.1500149 49,80.15 L1.85,80.15 C1.35934949,80.15 0.888794755,79.9550898 0.541852455,79.6081475 C0.194910155,79.2612052 -3.42619417e-15,78.7906505 0,78.3 L0,68.93 C0.000570841307,68.4422202 0.194801911,67.9746269 0.54,67.63 Z" id="Path" fill="#3E3F92"></path>
            <path d="M106.69,80.15 L97.35,80.15 C96.3282732,80.15 95.5,79.3217268 95.5,78.3 L95.5,73 C93.6663283,75.2720008 91.3322212,77.0893188 88.68,78.31 C85.6812339,79.6479905 82.4228915,80.3037575 79.14,80.23 C72.3933333,80.23 67.06,78.13 63.14,73.93 C59.22,69.73 57.2533333,63.87 57.24,56.35 L57.24,25 C57.2399928,24.5102641 57.4352215,24.040731 57.7824542,23.6953752 C58.129687,23.3500193 58.6002713,23.1573384 59.09,23.16 L68.73,23.16 C69.2197287,23.1573384 69.690313,23.3500193 70.0375458,23.6953752 C70.3847785,24.040731 70.5800072,24.5102641 70.58,25 L70.58,54.87 C70.58,59.1833333 71.58,62.59 73.58,65.09 C75.58,67.59 78.6466667,68.8433333 82.78,68.85 C86.2037827,68.9175199 89.4880265,67.4943476 91.78,64.95 C94.18,62.35 95.38,58.61 95.38,53.73 L95.38,25 C95.3799928,24.5102641 95.5752215,24.040731 95.9224542,23.6953752 C96.269687,23.3500193 96.7402713,23.1573384 97.23,23.16 L106.67,23.16 C107.163175,23.151958 107.638931,23.3422586 107.990513,23.688201 C108.342096,24.0341434 108.540066,24.5067591 108.54,25 L108.54,78.3 C108.54,78.7906505 108.34509,79.2612052 107.998148,79.6081475 C107.651205,79.9550898 107.180651,80.15 106.69,80.15 Z" id="Path" fill="#3E3F92"></path>
            <path d="M148.26,80.24 C144.592274,80.2950868 140.950661,79.6150469 137.55,78.24 C134.468231,76.9972802 131.755582,74.98689 129.67,72.4 L129.67,104.52 C129.67,105.541727 128.841727,106.37 127.82,106.37 L118.47,106.37 C117.448273,106.37 116.62,105.541727 116.62,104.52 L116.62,25 C116.619993,24.5102641 116.815221,24.040731 117.162454,23.6953752 C117.509687,23.3500193 117.980271,23.1573384 118.47,23.16 L127.82,23.16 C128.309729,23.1573384 128.780313,23.3500193 129.127546,23.6953752 C129.474779,24.040731 129.670007,24.5102641 129.67,25 L129.67,31.52 C131.76434,28.8845853 134.445654,26.7751474 137.5,25.36 C140.835524,23.8025338 144.479033,23.0164109 148.16,23.06 C151.722723,23.0642423 155.254466,23.7217837 158.58,25 C161.915786,26.2540587 164.973425,28.1497945 167.58,30.58 C170.250158,33.1332553 172.385022,36.1927743 173.86,39.58 C175.509722,43.4142381 176.321169,47.5567067 176.24,51.73 C176.3133,55.875347 175.484137,59.9870408 173.81,63.78 C172.299599,67.1724871 170.131058,70.2315564 167.43,72.78 C164.834322,75.1996293 161.795186,77.0944204 158.48,78.36 C155.218574,79.6121032 151.753504,80.2495133 148.26,80.24 Z M146.12,68.17 C150.646413,68.2129463 155.011592,66.4912654 158.29,63.37 C159.853057,61.8687646 161.094836,60.0656331 161.94,58.07 C162.821963,56.0033439 163.267931,53.77691 163.25,51.53 C163.276209,49.2855412 162.829874,47.0606812 161.94,45 C161.093592,43.0313488 159.851164,41.2579109 158.29,39.79 C156.700759,38.3073444 154.853689,37.1279311 152.84,36.31 C148.491403,34.6036263 143.658597,34.6036263 139.31,36.31 C133.151709,38.8283579 129.142131,44.8367868 129.18,51.49 C129.157486,53.7236703 129.58958,55.9385766 130.45,58 C131.26688,59.9742973 132.455031,61.7734972 133.95,63.3 C135.469852,64.848719 137.29516,66.0644556 139.31,66.87 C141.471202,67.7510814 143.786212,68.1930069 146.12,68.17 Z" id="Shape" fill="#3E3F92" fill-rule="nonzero"></path>
            <path d="M213.29,80.24 C209.622274,80.2950868 205.980661,79.6150469 202.58,78.24 C199.498231,76.9972802 196.785582,74.98689 194.7,72.4 L194.7,104.52 C194.7,105.541727 193.871727,106.37 192.85,106.37 L183.5,106.37 C182.478273,106.37 181.65,105.541727 181.65,104.52 L181.65,25 C181.649993,24.5102641 181.845221,24.040731 182.192454,23.6953752 C182.539687,23.3500193 183.010271,23.1573384 183.5,23.16 L192.85,23.16 C193.339729,23.1573384 193.810313,23.3500193 194.157546,23.6953752 C194.504779,24.040731 194.700007,24.5102641 194.7,25 L194.7,31.52 C196.79434,28.8845853 199.475654,26.7751474 202.53,25.36 C205.865524,23.8025338 209.509033,23.0164109 213.19,23.06 C216.752723,23.0642423 220.284466,23.7217837 223.61,25 C226.945786,26.2540587 230.003425,28.1497945 232.61,30.58 C235.280158,33.1332553 237.415022,36.1927743 238.89,39.58 C240.539722,43.4142381 241.351169,47.5567067 241.27,51.73 C241.3433,55.875347 240.514137,59.9870408 238.84,63.78 C237.329599,67.1724871 235.161058,70.2315564 232.46,72.78 C229.850448,75.2063095 226.79362,77.1015431 223.46,78.36 C220.214822,79.6080401 216.766889,80.2454162 213.29,80.24 Z M211.15,68.17 C215.676413,68.2129463 220.041592,66.4912654 223.32,63.37 C224.883057,61.8687646 226.124836,60.0656331 226.97,58.07 C227.851963,56.0033439 228.297931,53.77691 228.28,51.53 C228.315679,49.2876828 227.879583,47.0629091 227,45 C226.153592,43.0313488 224.911164,41.2579109 223.35,39.79 C221.760759,38.3073444 219.913689,37.1279311 217.9,36.31 C213.551403,34.6036263 208.718597,34.6036263 204.37,36.31 C198.211709,38.8283579 194.202131,44.8367868 194.24,51.49 C194.207983,53.7216016 194.629855,55.9364294 195.48,58 C196.29688,59.9742973 197.485031,61.7734972 198.98,63.3 C200.499852,64.848719 202.32516,66.0644556 204.34,66.87 C206.501202,67.7510814 208.816212,68.1930069 211.15,68.17 Z" id="Shape" fill="#3E3F92" fill-rule="nonzero"></path>
            <path d="M245,9.27 C244.896631,7.04812694 245.705865,4.88053823 247.24,3.27 C250.702545,0.215220652 255.897455,0.215220652 259.36,3.27 C260.863065,4.89661863 261.651822,7.05759755 261.55,9.27 C261.653721,11.4647489 260.863589,13.6078452 259.36,15.21 C255.834605,18.1979335 250.665395,18.1979335 247.14,15.21 C245.664377,13.5938232 244.894159,11.4559299 245,9.27 Z" id="Path" fill="#EA5144"></path>
            <rect id="Rectangle" fill="#3E3F92" x="246.68" y="23.2" width="13.24" height="56.95" rx="1.85"></rect>
            <path d="M267.32,23.2 L275.21,23.2 L275.21,15.51 C275.215352,14.908954 275.509292,14.3471181 276,14 L285.54,7.48 C286.105517,7.0901547 286.84047,7.0457171 287.448838,7.36458567 C288.057206,7.68345424 288.438829,8.31313247 288.44,9 L288.44,23.2 L298.18,23.2 C299.173001,23.2105606 299.978468,24.0071758 300,25 L300,33.09 C300.01615,33.5857986 299.832508,34.0673123 299.490302,34.4264398 C299.148097,34.7855674 298.676001,34.9922187 298.18,35 L288.44,35 L288.44,56.29 C288.407011,58.2972684 288.537442,60.3038922 288.83,62.29 C289.030886,65.024649 291.205351,67.1991141 293.94,67.4 C295.356347,67.6225416 296.786474,67.746174 298.22,67.77 C299.204377,67.8122639 299.985015,68.6148298 300,69.6 L300,78.3 C300,79.3217268 299.171727,80.15 298.15,80.15 C294.442919,80.2316901 290.740344,79.8453052 287.13,79 C284.446986,78.3579998 281.99977,76.971475 280.07,75 C278.206583,72.9340844 276.914064,70.4179809 276.32,67.7 C275.506548,63.9766132 275.133987,60.1704509 275.21,56.36 L275.21,35 L267.32,35 C266.298273,35 265.47,34.1717268 265.47,33.15 L265.47,25 C265.491825,23.9955499 266.315329,23.1943027 267.32,23.2 Z" id="Path" fill="#3E3F92"></path>
            <path d="M332.06,80.24 C328.103842,80.2553898 324.183107,79.4943461 320.52,78 C317.022253,76.5982749 313.83239,74.5260527 311.13,71.9 C308.46389,69.304696 306.330587,66.2134452 304.85,62.8 C301.797004,55.6662514 301.797004,47.5937486 304.85,40.46 C306.330587,37.0465548 308.46389,33.955304 311.13,31.36 C313.835116,28.7373647 317.024268,26.6656046 320.52,25.26 C324.185867,23.7793443 328.106504,23.0319091 332.06,23.06 C339.835976,22.9983792 347.328432,25.9767022 352.94,31.36 C355.624464,33.9504754 357.775021,37.0421139 359.27,40.46 C362.310186,47.5963692 362.310186,55.6636308 359.27,62.8 C357.775021,66.2178861 355.624464,69.3095246 352.94,71.9 C347.328432,77.2832978 339.835976,80.2616208 332.06,80.2 L332.06,80.24 Z M332.06,67.88 C334.297413,67.8973725 336.51522,67.4619748 338.58,66.6 C340.535376,65.7833344 342.319722,64.6062091 343.84,63.13 C346.895006,60.11971 348.613536,56.0089267 348.61,51.72 C348.62195,49.5390837 348.189844,47.3785575 347.34,45.37 C346.528369,43.4342084 345.338449,41.6799264 343.84,40.21 C342.319722,38.7337909 340.535376,37.5566656 338.58,36.74 C336.51522,35.8780252 334.297413,35.4426275 332.06,35.46 C329.806589,35.4446383 327.572836,35.8798292 325.49,36.74 C323.523978,37.5365489 321.735974,38.7160878 320.23,40.21 C318.75671,41.6924252 317.582071,43.4441992 316.77,45.37 C315.923585,47.3792759 315.494887,49.5397751 315.51,51.72 C315.497684,53.8773218 315.92646,56.0143946 316.77,58 C317.582071,59.9258008 318.75671,61.6775748 320.23,63.16 C321.735974,64.6539122 323.523978,65.8334511 325.49,66.63 C327.574944,67.4798995 329.808622,67.9048762 332.06,67.88 Z" id="Shape" fill="#3E3F92" fill-rule="nonzero"></path>
            <path d="M388.71,80.24 C382.423333,80.24 377.2,79.07 373.04,76.73 C369.503182,74.7455531 366.540386,71.8792207 364.44,68.41 C364.159328,67.9558704 364.087323,67.4030326 364.242307,66.8921604 C364.39729,66.3812882 364.764319,65.9616406 365.25,65.74 L374.09,61.74 C374.912244,61.373542 375.878912,61.6521448 376.38,62.4 C377.59253,64.2238029 379.216028,65.7376983 381.12,66.82 C383.621998,68.1978666 386.444498,68.8879642 389.3,68.82 C392.54,68.82 394.98,68.17 396.6,66.87 C398.085965,65.8010262 398.976546,64.0903678 399,62.26 C399.02225,61.3261046 398.608192,60.4351422 397.88,59.85 C397.013932,59.1577947 396.041297,58.610687 395,58.23 C393.628157,57.715667 392.212304,57.3273953 390.77,57.07 C389.14,56.76 387.46,56.42 385.71,56.07 C383.243333,55.5766667 380.823333,54.99 378.45,54.31 C376.199385,53.684122 374.053078,52.7305819 372.08,51.48 C370.218676,50.3038207 368.651855,48.7164741 367.5,46.84 C366.262221,44.6843405 365.655791,42.2239665 365.75,39.74 C365.758325,37.5519903 366.311656,35.400529 367.36,33.48 C368.483502,31.4081683 370.022217,29.5903053 371.88,28.14 C373.994875,26.5042321 376.386095,25.2612039 378.94,24.47 C381.917822,23.5454108 385.022158,23.0932575 388.14,23.13 C393.846667,23.13 398.6,24.1866667 402.4,26.3 C405.450672,27.9703009 408.101864,30.2836956 410.17,33.08 C410.497311,33.5266554 410.607332,34.0964431 410.469842,34.6328476 C410.332352,35.1692522 409.96181,35.6158629 409.46,35.85 L401.61,39.56 C400.832109,39.9262038 399.904186,39.7015049 399.38,39.02 C398.288383,37.6481741 396.926998,36.5148213 395.38,35.69 C393.154215,34.5497382 390.68035,33.9793748 388.18,34.03 C385.06,34.03 382.756667,34.62 381.27,35.8 C379.90585,36.7061993 379.061059,38.2134259 379,39.85 C379,41.65 380.103333,42.9333333 382.31,43.7 C385.483358,44.7314244 388.720117,45.5564806 392,46.17 C394.382773,46.6107496 396.739632,47.1816036 399.06,47.88 C401.33795,48.5489591 403.516992,49.517422 405.54,50.76 C407.440458,51.9343191 409.053368,53.5198916 410.26,55.4 C411.529971,57.5481163 412.154843,60.016361 412.06,62.51 C412.024361,64.5822755 411.561369,66.6248899 410.7,68.51 C409.696849,70.697689 408.253478,72.6550915 406.46,74.26 C404.343871,76.1531604 401.882163,77.6199983 399.21,78.58 C395.839779,79.7661039 392.281747,80.3286119 388.71,80.24 Z" id="Path" fill="#3E3F92"></path>
            <path d="M341.32,54.28 L326.32,59.39 C328.96,63.16 331.89,64.47 335.48,63.23 C339.07,61.99 341.5,59.34 341.32,54.28 Z" id="Path" fill="#EA5144"></path>
        </g>
    </g>
</svg>