<?xml version="1.0" encoding="UTF-8"?>
<svg width="28px" height="27px" viewBox="0 0 28 27" version="1.1" xmlns="http://www.w3.org/2000/svg" xmlns:xlink="http://www.w3.org/1999/xlink">
    <!-- Generator: Sketch 62 (91390) - https://sketch.com -->
    <title>entregas roxo</title>
    <desc>Created with Sketch.</desc>
    <g id="Page-1" stroke="none" stroke-width="1" fill="none" fill-rule="evenodd">
        <g id="Tab" transform="translate(-124.000000, -356.000000)">
            <g id="entregas-roxo" transform="translate(124.000000, 355.000000)">
                <rect id="Rectangle-Copy" x="0" y="0" width="28" height="28"></rect>
                <g id="delivery-copy" transform="translate(0.000000, 1.000000)" fill="#550FED" fill-rule="nonzero">
                    <path d="M27.1087561,13.5719966 C26.6202003,13.0116901 25.9507059,12.7432867 25.2884747,12.7766931 L25.2884747,2.1880061 C25.2884747,0.981457937 24.3784408,0 23.2596972,0 L8.92495447,0 C7.80621094,0 6.89617699,0.981457937 6.89617699,2.1880061 L6.89617699,14.3709863 C6.11623954,14.7087369 5.61721626,15.1761965 5.32391186,15.532839 L0.825652802,15.532839 C0.369781391,15.532839 0,15.9316427 0,16.4235236 L0,25.8798478 C0,26.3717287 0.369781391,26.7705324 0.825652802,26.7705324 L5.70693791,26.7705324 L17.7249395,26.9990784 C17.7524969,27 17.7800542,27 17.8076116,27 C19.1213929,27 20.3768551,26.4026009 21.2627497,25.3524869 L27.1452856,18.3797582 C27.7032688,17.7185412 28.0066135,16.8619542 27.9998906,15.9680442 C27.9931552,15.0741341 27.676566,14.2230765 27.1087561,13.5719966 L27.1087561,13.5719966 Z M14.5876724,1.78113882 L17.4841864,1.78113882 L17.4841864,4.45157985 L14.5876724,4.45157985 L14.5876724,1.78113882 Z M8.54748265,2.1880061 C8.54748265,1.96360706 8.71688566,1.78113882 8.9247408,1.78113882 L12.9361531,1.78113882 L12.9361531,5.34226447 C12.9361531,5.83391497 13.3059345,6.23271867 13.7620196,6.23271867 L18.3098392,6.23271867 C18.7659243,6.23271867 19.135492,5.83391497 19.135492,5.34226447 L19.135492,1.78113882 L23.2596972,1.78113882 C23.467766,1.78113882 23.6369554,1.96360706 23.6369554,2.1880061 L23.6369554,13.5851288 L19.238031,17.3713447 C18.9545533,16.6834026 18.51449,16.2638639 18.1205692,16.0113573 C17.4391119,15.5745394 16.7614998,15.561868 16.6863046,15.561868 L13.0602681,15.561868 C12.5638083,14.9303713 11.4266931,13.9327861 9.19582841,13.9327861 C8.96853356,13.9327861 8.75277432,13.943384 8.54748265,13.9627367 L8.54748265,2.1880061 Z M1.65151927,17.3139778 L4.88812099,17.3139778 L4.88812099,24.9893935 L1.65151927,24.9893935 L1.65151927,17.3139778 Z M25.9237894,17.1810433 L20.0410398,24.153772 C19.4563537,24.8467827 18.6217287,25.2338365 17.7539922,25.2184004 L6.53964025,25.0050601 L6.53964025,16.7290197 C6.77633451,16.4292833 7.5180335,15.7139249 9.19604202,15.7139249 C11.2152064,15.7139249 11.8317223,16.7283285 11.8975182,16.848822 C12.0282554,17.1725188 12.3087425,17.3430068 12.6375082,17.3430068 L16.6865182,17.3430068 C16.6892952,17.3430068 16.9887947,17.3577517 17.2767585,17.5422935 C17.6862737,17.8049371 17.8851567,18.2975092 17.8851567,19.0483476 C17.8851567,19.774304 17.699732,20.2578908 17.3182013,20.5262943 C17.0272468,20.7311102 16.7085213,20.7520756 16.6777596,20.7536884 L10.9977382,20.7536884 C10.5416532,20.7536884 10.1720854,21.1522617 10.1720854,21.6441426 C10.1720854,22.1360235 10.5416532,22.5345968 10.9977382,22.5345968 L16.6865182,22.5345968 C16.7614998,22.5345968 17.4391119,22.5221558 18.1205692,22.0851075 C18.7217043,21.6996664 19.4302917,20.9257891 19.5257812,19.4024558 L24.9253156,14.7550451 C24.9327924,14.7485942 24.939842,14.7421433 24.9471051,14.7356924 C25.2297284,14.4748919 25.6507793,14.4995435 25.9056315,14.7919074 C26.4851906,15.4568105 26.4933083,16.5060029 25.9237894,17.1810433 L25.9237894,17.1810433 Z" id="Shape"></path>
                </g>
            </g>
        </g>
    </g>
</svg>