<?xml version="1.0" encoding="UTF-8"?>
<svg width="28px" height="28px" viewBox="0 0 28 28" version="1.1" xmlns="http://www.w3.org/2000/svg" xmlns:xlink="http://www.w3.org/1999/xlink">
    <!-- Generator: Sketch 62 (91390) - https://sketch.com -->
    <title>inicio roxo</title>
    <desc>Created with Sketch.</desc>
    <g id="Page-1" stroke="none" stroke-width="1" fill="none" fill-rule="evenodd">
        <g id="Tab" transform="translate(-91.000000, -355.000000)">
            <g id="inicio-roxo" transform="translate(91.000000, 355.000000)">
                <rect id="Rectangle" x="0" y="0" width="28" height="28"></rect>
                <g id="home-(1)-copy" fill="#550FED" fill-rule="nonzero">
                    <path d="M27.5297234,12.5893022 L25.1643258,10.4027244 L25.1643258,3.15224744 C25.1643258,2.69091952 24.7956775,2.31686386 24.3408964,2.31686386 L18.6471096,2.31686386 C18.1923832,2.31686386 17.8236802,2.69086404 17.8236802,3.15224744 L17.8236802,3.61684876 L14.967025,0.976100131 C14.4156112,0.466281463 13.5840881,0.466336944 13.0328929,0.976044649 L0.470194621,12.5893577 C0.0285385392,12.9977009 -0.117422343,13.6268601 0.09837445,14.1921601 C0.31422593,14.7574602 0.839772604,15.1226943 1.43734269,15.1226943 L3.44377161,15.1226943 L3.44377161,26.7583109 C3.44377161,27.2196389 3.81241991,27.59375 4.26720098,27.59375 L11.1530655,27.59375 C11.6077919,27.59375 11.9764949,27.2196943 11.9764949,26.7583109 L11.9764949,19.6935302 L16.0234231,19.6935302 L16.0234231,26.7583664 C16.0234231,27.2196943 16.3920714,27.59375 16.8468524,27.59375 L23.7324436,27.59375 C24.1871699,27.59375 24.5558729,27.2197498 24.5558182,26.7583664 L24.5558182,15.1227498 L26.5626847,15.1227498 C27.1602001,15.1227498 27.6858014,14.7574602 27.9016529,14.1922156 C28.117395,13.6268601 27.9714888,12.9977009 27.5297234,12.5893022 Z M23.7324436,13.4519827 C23.2777172,13.4519827 22.9090142,13.8259828 22.9090142,14.2873662 L22.9090142,25.9229828 L17.6703365,25.9229828 L17.6703365,18.8581467 C17.6703365,18.3968187 17.3016335,18.0227631 16.8469071,18.0227631 L11.1530655,18.0227631 C10.6983392,18.0227631 10.3296362,18.3967633 10.3296362,18.8581467 L10.3296362,25.9229828 L5.09057567,25.9229828 L5.09057567,14.2873662 C5.09057567,13.8260383 4.72192737,13.4519827 4.2671463,13.4519827 L1.98213936,13.4519827 L14.000041,2.34238531 L18.0926332,6.12571808 C18.3336956,6.34853142 18.681672,6.40595468 18.9798829,6.27241093 C19.2781484,6.13870073 19.4705936,5.83899016 19.4705936,5.50821 L19.4705936,3.98763102 L23.5175764,3.98763102 L23.5175764,10.7716758 C23.5175764,11.0067505 23.6151389,11.2308399 23.7864201,11.3891839 L26.0178333,13.4519827 L23.7324436,13.4519827 Z" id="Shape"></path>
                </g>
            </g>
        </g>
    </g>
</svg>