<?xml version="1.0" encoding="UTF-8"?>
<svg width="24px" height="27px" viewBox="0 0 24 27" version="1.1" xmlns="http://www.w3.org/2000/svg" xmlns:xlink="http://www.w3.org/1999/xlink">
    <!-- Generator: Sketch 62 (91390) - https://sketch.com -->
    <title>Notificações</title>
    <desc>Created with Sketch.</desc>
    <g id="Page-1" stroke="none" stroke-width="1" fill="none" fill-rule="evenodd">
        <g id="Tab" transform="translate(-159.000000, -321.000000)">
            <g id="Notificações" transform="translate(157.000000, 320.000000)">
                <rect id="Rectangle-Copy-2" x="0" y="0" width="28" height="28"></rect>
                <g id="bell-copy" transform="translate(2.000000, 1.000000)" fill="#484848" fill-rule="nonzero">
                    <path d="M12,27 C9.79414065,27 8,25.1311035 8,22.8333333 C8,22.3733317 8.35839845,22 8.8,22 C9.24160155,22 9.6,22.3733317 9.6,22.8333333 C9.6,24.2123209 10.6763672,25.3333333 12,25.3333333 C13.3238281,25.3333333 14.4,24.2123209 14.4,22.8333333 C14.4,22.3733317 14.7583985,22 15.2,22 C15.6416015,22 16,22.3733317 16,22.8333333 C16,25.1311035 14.2058594,27 12,27 L12,27 Z" id="Path"></path>
                    <path d="M21.8998599,24 L2.09992033,24 C0.941964912,24 0,23.084198 0,21.9584046 C0,21.3609009 0.267626108,20.7952271 0.734323959,20.4066467 C2.5595869,18.9074402 3.59998901,16.7282715 3.59998901,14.4194336 L3.59998901,11.1665954 C3.59998901,6.66342162 7.36806832,3 11.9998901,3 C16.6319317,3 20.400011,6.66342162 20.400011,11.1665954 L20.400011,14.4194336 C20.400011,16.7282715 21.440413,18.9074402 23.2535912,20.398529 C23.7323738,20.7952271 24,21.3609009 24,21.9584046 C24,23.084198 23.0580351,24 21.8998599,24 Z M11.9998901,4.75 C8.36035044,4.75 5.39998352,7.6281433 5.39998352,11.1665954 L5.39998352,14.4194336 C5.39998352,17.2437439 4.12689173,19.9108276 1.90809964,21.7343139 C1.86591227,21.7693482 1.79999451,21.8417663 1.79999451,21.9584046 C1.79999451,22.1169128 1.93688375,22.25 2.09992033,22.25 L21.8998599,22.25 C22.0631162,22.25 22.2000055,22.1169128 22.2000055,21.9584046 C22.2000055,21.8417663 22.133868,21.7693482 22.0943173,21.7366638 C19.8731083,19.9108276 18.6000165,17.2437439 18.6000165,14.4194336 L18.6000165,11.1665954 C18.6000165,7.6281433 15.6396495,4.75 11.9998901,4.75 Z" id="Shape"></path>
                    <path d="M12,5 C11.4479981,5 11,4.62666828 11,4.16666667 L11,0.833333333 C11,0.373331719 11.4479981,0 12,0 C12.5520019,0 13,0.373331719 13,0.833333333 L13,4.16666667 C13,4.62666828 12.5520019,5 12,5 Z" id="Path"></path>
                </g>
            </g>
        </g>
    </g>
</svg>