<?xml version="1.0" encoding="UTF-8"?>
<svg width="22px" height="27px" viewBox="0 0 22 27" version="1.1" xmlns="http://www.w3.org/2000/svg" xmlns:xlink="http://www.w3.org/1999/xlink">
    <!-- Generator: Sketch 62 (91390) - https://sketch.com -->
    <title>Sua conta roxo</title>
    <desc>Created with Sketch.</desc>
    <g id="Page-1" stroke="none" stroke-width="1" fill="none" fill-rule="evenodd">
        <g id="Tab" transform="translate(-193.000000, -356.000000)">
            <g id="Sua-conta-roxo" transform="translate(190.000000, 355.000000)">
                <g id="user-copy" transform="translate(3.000000, 1.000000)" fill="#550FED" fill-rule="nonzero">
                    <path d="M10.5,13 C12.2859043,13 13.8321507,12.3594508 15.0959138,11.0956476 C16.3592651,9.83205045 17,8.28596094 17,6.49979411 C17,4.714245 16.359471,3.16794955 15.095708,1.90394059 C13.8319449,0.640549287 12.2856985,0 10.5,0 C8.71388978,0 7.1678492,0.640549287 5.90429204,1.90414648 C4.64073487,3.16774367 4,4.71403911 4,6.49979411 C4,8.28596094 4.64073487,9.83225633 5.90429204,11.0958535 C7.16826101,12.3592448 8.71450742,13 10.5,13 Z M7.02269558,3.02237957 C7.99223949,2.05280494 9.12958502,1.581504 10.5,1.581504 C11.870209,1.581504 13.0077606,2.05280494 13.9775103,3.02237957 C14.9470542,3.99216003 15.4185461,5.12974752 15.4185461,6.49979411 C15.4185461,7.87025248 14.9470542,9.00763409 13.9775103,9.97741455 C13.0077606,10.9471951 11.870209,11.418496 10.5,11.418496 C9.12999683,11.418496 7.99265125,10.9469892 7.02269558,9.97741455 C6.05294585,9.00783997 5.5814539,7.87025248 5.5814539,6.49979411 C5.5814539,5.12974752 6.05294585,3.99216003 7.02269558,3.02237957 Z" id="Shape"></path>
                    <path d="M21.9466869,20.7428829 C21.9110778,20.2151891 21.8390548,19.6395608 21.7330322,19.0317006 C21.6260037,18.4192949 21.4881943,17.8403607 21.3232255,17.3112207 C21.1526236,16.7643118 20.9210637,16.2242212 20.6343801,15.7066515 C20.337235,15.1694535 19.987984,14.701678 19.5960825,14.316755 C19.1862758,13.9140631 18.6845291,13.590298 18.1043218,13.3541375 C17.5261262,13.1192166 16.8853632,13.0002066 16.1999378,13.0002066 C15.930757,13.0002066 15.6704282,13.1136381 15.1676756,13.4498 C14.8582585,13.6570345 14.496333,13.8967074 14.0923606,14.161794 C13.746932,14.3878304 13.2789839,14.5996104 12.7009895,14.7913488 C12.1370777,14.9787482 11.5645153,15.073791 10.9991953,15.073791 C10.4342777,15.073791 9.86171519,14.9787482 9.29740114,14.7913488 C8.72001025,14.599817 8.25186093,14.388037 7.90703589,14.1620006 C7.50688588,13.8993934 7.1447592,13.6597205 6.83071492,13.4495934 C6.32836477,13.1134315 6.0680359,13 5.7988551,13 C5.1132286,13 4.47266676,13.1192166 3.89467237,13.3543441 C3.3148673,13.5900914 2.81291954,13.9138565 2.40271048,14.3169616 C2.01080895,14.7020913 1.66155789,15.1696602 1.36461402,15.7066515 C1.07833276,16.2242212 0.846571686,16.7641052 0.675969787,17.3114273 C0.511202139,17.8405673 0.373392835,18.4192949 0.266364285,19.0317006 C0.160140461,19.6387343 0.0883186844,20.2145693 0.0527095746,20.7435027 C0.0177039706,21.2606591 0,21.7988902 0,22.3426999 C0,23.7563571 0.437569741,24.9007955 1.30043711,25.7448162 C2.15264188,26.5776797 3.28006292,27 4.65151708,27 L17.3484829,27 C18.7195347,27 19.8469558,26.5776797 20.6993617,25.7448162 C21.5624303,24.9014153 22,23.7565637 22,22.3424932 C22,21.796824 21.9818937,21.258593 21.9466869,20.7428829 L21.9466869,20.7428829 Z M19.6339046,24.5950058 C19.0707976,25.1454272 18.3232072,25.4129931 17.3482817,25.4129931 L4.65151708,25.4129931 C3.67639042,25.4129931 2.92880007,25.1454272 2.36589425,24.5952124 C1.81365109,24.0553284 1.54527497,23.3183341 1.54527497,22.3426999 C1.54527497,21.8352544 1.56157065,21.3342139 1.59416208,20.8532151 C1.62594873,20.3813073 1.69093036,19.8629112 1.78729631,19.3120766 C1.88245514,18.7680604 2.00356641,18.2575156 2.14761236,17.7953187 C2.285824,17.3521303 2.47433109,16.9132809 2.70810395,16.4905474 C2.9312142,16.0876489 3.18792182,15.7419826 3.47118535,15.4634661 C3.73614136,15.2029251 4.07010262,14.9896988 4.4636136,14.8297791 C4.8275509,14.681843 5.23655284,14.6008501 5.68056039,14.5886598 C5.73467819,14.6182057 5.83104414,14.6746115 5.98716097,14.7791585 C6.30482655,14.9917649 6.67097685,15.2343305 7.07575399,15.4998303 C7.5320336,15.798595 8.11988587,16.0684337 8.82221045,16.3012884 C9.54022715,16.5397217 10.2725278,16.6607979 10.9993964,16.6607979 C11.7262652,16.6607979 12.458767,16.5397217 13.1763813,16.301495 C13.8793094,16.0682271 14.4669606,15.798595 14.9238437,15.499417 C15.3380764,15.2275122 15.6939664,14.9919715 16.011632,14.7791585 C16.1677488,14.6748181 16.2641147,14.6182057 16.3182325,14.5886598 C16.7624413,14.6008501 17.1714432,14.681843 17.5355817,14.8297791 C17.9288915,14.9896988 18.2628527,15.2031317 18.5278088,15.4634661 C18.8110723,15.741776 19.0677799,16.0874423 19.2908902,16.490754 C19.5248642,16.9132809 19.7135724,17.3523369 19.851583,17.7951121 C19.9958301,18.2579288 20.1171425,18.768267 20.2121002,19.31187 C20.3082649,19.8637377 20.3734477,20.3823404 20.4052344,20.8534217 L20.4052344,20.8538349 C20.438027,21.3329742 20.4545239,21.8338081 20.454725,22.3426999 C20.4545239,23.3185407 20.1861477,24.0553284 19.6339046,24.5950058 L19.6339046,24.5950058 Z" id="Shape"></path>
                </g>
                <rect id="Rectangle-Copy-3" x="0" y="0" width="28" height="28"></rect>
            </g>
        </g>
    </g>
</svg>