<?xml version="1.0" encoding="UTF-8"?>
<svg width="4000px" height="2000px" viewBox="0 0 4000 2000" version="1.1" xmlns="http://www.w3.org/2000/svg" xmlns:xlink="http://www.w3.org/1999/xlink">
    <!-- Generator: Sketch 52.6 (67491) - http://www.bohemiancoding.com/sketch -->
    <title>4458</title>
    <desc>Created with Sketch.</desc>
    <g id="Page-1" stroke="none" stroke-width="1" fill="none" fill-rule="evenodd">
        <g id="4458">
            <polygon id="Fill-1" fill="#FFFFFF" points="0.06 2000 4000 2000 4000 0 0.06 0"></polygon>
            <path d="M3053.15,639.947 C2584.2,639.947 2328.14,26.94 1678.91,539.811 C1517.27,667.499 1007.91,298.912 856.383,908.892 C828.111,1022.71 664.095,1081.24 483.388,1170.42 C199.931,1310.31 408.369,1801.93 676.154,1804.28 C943.938,1806.63 2911.29,1799.6 2911.29,1799.6 C2911.29,1799.6 3968.08,639.947 3053.15,639.947" id="Fill-3" fill="#EBF2F9"></path>
            <path d="M3707.58,1691.41 L3713.55,1687.24 C3713.55,1687.24 3758.38,1627.73 3741.09,1625.7 C3730.37,1624.43 3711.99,1655.73 3699.57,1679.68 C3697.96,1677.41 3696.32,1675.15 3694.66,1672.9 C3707.69,1614.13 3727.83,1497.18 3685.12,1484.95 C3655.76,1476.54 3633.91,1533.26 3619.59,1590.56 C3563.73,1539.07 3511.48,1506.53 3511.48,1506.53 C3511.48,1506.53 3953.78,1139.03 3623.27,945.156 C3292.76,751.282 3041.67,1433.46 3041.67,1433.46 C3041.67,1433.46 2815.83,1224.32 2600.19,1301.56 C2445.76,1356.87 2466.32,1445.09 2427.7,1506.91 C2422.5,1453.78 2408.99,1382.31 2373.95,1390.77 C2334.85,1400.21 2379.96,1482.37 2409.44,1529.26 C2405.6,1532.87 2401.35,1536.32 2396.64,1539.61 C2364.43,1515.88 2313.24,1483.39 2290.85,1497.49 C2262.89,1515.1 2297.83,1537.94 2372.19,1553.16 C2336.64,1568.74 2282.67,1578.02 2197.55,1577.77 C1889.1,1576.85 1968.25,1798.94 1968.25,1798.94 L3751.63,1803.05 C3747.32,1764.07 3730.48,1726.26 3707.58,1691.41" id="Fill-4" fill="#ACD29A"></path>
            <path d="M291.741,1799.43 L962.656,1800.46 C962.656,1800.46 914.069,1762.21 878.921,1775.65 C843.773,1789.09 774.511,1779.78 765.207,1751.87 C755.903,1723.96 721.789,1695.01 633.918,1690.88 C546.048,1686.74 506.765,1736.37 463.347,1749.8 C436.391,1758.15 412.232,1756.93 397.782,1754.8 C379.911,1691.2 335.54,1566.27 262.674,1566.23 C189.687,1566.2 241.975,1623.63 271.44,1642.24 C289.712,1653.78 330.252,1711.23 358.419,1753.21 C349.487,1754.35 341.748,1756.15 335.032,1758.39 C315.902,1725.08 279.707,1674.25 237.861,1676.34 C175.829,1679.44 217.7,1715.11 250.267,1733.72 C267.187,1743.39 293.313,1757.24 314.515,1768.32 C294.333,1782.07 291.741,1799.43 291.741,1799.43" id="Fill-5" fill="#ACD29A"></path>
            <polygon id="Fill-6" fill="#E69D43" points="2977.42 1801.8 3431.17 1801.8 3431.17 722.26 2977.42 722.26"></polygon>
            <polyline id="Fill-7" fill="#E68A36" points="2977.42 1116.96 2830.5 1241.5 3302.85 1241.5 3431.17 1116.96 2977.42 1116.96"></polyline>
            <polyline id="Fill-8" fill="#EBBA56" points="3029.13 1137.95 2931.74 1220.51 3244.87 1220.51 3329.93 1137.95 3029.13 1137.95"></polyline>
            <polygon id="Fill-9" fill="#E69D43" points="2830.5 1801.47 3302.85 1801.47 3302.85 1241.5 2830.5 1241.5"></polygon>
            <polyline id="Fill-10" fill="#CA5F00" points="3431.17 722.26 3431.17 1116.95 3302.85 1241.5 3302.85 1801.8 3601.85 1801.8 3601.85 722.26 3431.17 722.26"></polyline>
            <polygon id="Fill-11" fill="#CA5F00" points="3090.66 1036.7 3367.01 1036.7 3367.01 830.513 3090.66 830.513"></polygon>
            <polygon id="Fill-12" fill="#EBBA56" points="3140.58 1036.7 3367.01 1036.7 3367.01 830.513 3140.58 830.513"></polygon>
            <polygon id="Fill-13" fill="#CA5F00" points="2872.02 1302.39 2992.41 1302.39 2992.41 1284.4 2872.02 1284.4"></polygon>
            <polygon id="Fill-14" fill="#CA5F00" points="3130.84 1302.39 3251.23 1302.39 3251.23 1284.4 3130.84 1284.4"></polygon>
            <polygon id="Fill-15" fill="#CA5F00" points="2830.5 1636.72 3601.85 1636.72 3601.85 1633.87 2830.5 1633.87"></polygon>
            <polygon id="Fill-16" fill="#CA5F00" points="2830.5 1347.03 3601.85 1347.03 3601.85 1344.18 2830.5 1344.18"></polygon>
            <path d="M2241.11,732.211 C2241.11,732.211 2235.33,649.674 2128.14,680.925 C2103.82,688.016 2106.99,761.445 2165.88,789.402 L2241.11,732.211" id="Fill-17" fill="#2B478B"></path>
            <path d="M2198.26,841.176 C2198.26,841.176 2240.22,848.771 2255.78,864.331 C2271.34,879.891 2308.05,925.792 2284.95,1078.83 C2284.95,1078.83 2283.1,1124.96 2231.23,1129.41 C2179.37,1133.85 2198.26,841.176 2198.26,841.176" id="Fill-18" fill="#B64C41"></path>
            <path d="M2101.84,1221.77 C2109.05,1272 2157.46,1402.53 2156.05,1447.65 C2154.93,1483.2 2155.52,1565.34 2160.21,1619.9 C2161.5,1634.74 2163.03,1647.47 2164.96,1656.74 C2169.13,1676.87 2174.47,1700.04 2177.34,1714.65 C2183.74,1747.45 2180.39,1766.57 2185.62,1784.17 C2191.37,1803.42 2257.37,1799.89 2237.48,1788.22 C2230.38,1784.05 2220.05,1775.2 2214.95,1763.75 C2196.41,1722.22 2222.4,1543.1 2230.15,1474.05 C2231.14,1465.42 2231.85,1458.56 2232.14,1453.87 C2234.72,1411.22 2264,1127.07 2264,1127.07 C2192.9,1087.53 2094.68,1171.55 2101.84,1221.77" id="Fill-19" fill="#D9935C"></path>
            <path d="M2101.84,1221.77 C2109.05,1272 2157.46,1402.53 2156.05,1447.65 C2154.93,1483.2 2155.52,1565.34 2160.21,1619.9 L2230.15,1474.05 C2231.14,1465.42 2231.85,1458.56 2232.14,1453.87 C2234.72,1411.22 2264.74,1126.96 2264.74,1126.96 C2193.63,1087.42 2094.68,1171.55 2101.84,1221.77" id="Fill-20" fill="#CB8757"></path>
            <path d="M2256.1,1136.3 C2256.1,1136.3 2195.03,1417.02 2188.09,1459.16 C2181.15,1501.3 2125.54,1699.76 2137.66,1749.48 C2144.81,1778.82 2157.28,1787.5 2157.28,1787.5 C2160.21,1792.87 2111.91,1803.56 2108.01,1782.97 C2103.06,1756.84 2102.02,1720.16 2094.76,1657.97 C2082.27,1550.89 2107.05,1489.96 2113.05,1445.21 C2119.06,1400.46 2092.88,1258.22 2107.41,1209.61 C2132.83,1124.54 2189.46,1089.66 2256.1,1136.3" id="Fill-21" fill="#D9935C"></path>
            <path d="M2093.13,1394.25 C2093.13,1394.25 2109.03,1396.72 2132.44,1398.36 L2145.17,1347.32 L2149.63,1399.3 C2187.23,1400.83 2236.34,1398.95 2272.54,1383.99 L2264.74,1126.96 C2264.74,1126.96 2212.31,1140.79 2149.24,1116.56 C2149.24,1116.56 2067.22,1180.6 2093.13,1394.25" id="Fill-22" fill="#B64C41"></path>
            <path d="M2166.84,1799.09 L2110.28,1799.09 C2105.76,1792.5 2099.42,1765.89 2094.64,1760.55 C2094.32,1760.2 2093.97,1759.78 2093.6,1759.31 L2093.12,1799.09 L2087.97,1799.09 C2087.89,1792.87 2087.36,1761.79 2084.36,1744.74 C2081.27,1738.84 2079.07,1733.13 2080.03,1730.72 C2082.03,1725.7 2100.5,1714.56 2100.5,1714.56 C2100.5,1714.56 2113.02,1782.67 2120.66,1784.59 C2138.88,1789.17 2155.56,1785.94 2155.56,1785.94 C2155.56,1785.94 2163.74,1789.5 2166.34,1793.63 L2166.34,1793.64 C2167.42,1795.35 2167.83,1797.21 2166.84,1799.09" id="Fill-23" fill="#2B478B"></path>
            <path d="M2244.09,1799.09 L2187.53,1799.09 C2183.06,1792.57 2176.82,1766.52 2172.05,1760.78 L2171.59,1799.09 L2166.44,1799.09 C2166.43,1797.98 2166.4,1796.1 2166.34,1793.64 L2166.34,1793.63 C2166.11,1783.08 2165.41,1762.09 2163.34,1747.92 C2159.4,1741 2156.15,1733.57 2157.28,1730.72 C2159.28,1725.7 2177.34,1714.65 2177.34,1714.65 C2177.34,1714.65 2190.26,1782.67 2197.91,1784.59 C2216.13,1789.17 2234.47,1786.33 2234.47,1786.33 C2234.47,1786.33 2247.48,1792.66 2244.09,1799.09" id="Fill-24" fill="#2B478B"></path>
            <path d="M2265.69,1129.55 C2265.69,1129.55 2290.56,1044.55 2282.73,962.692 C2274.89,880.837 2212.5,839 2212.5,839 C2212.5,839 2148.23,844.407 2139.95,862.393 C2131.67,880.378 2159.43,1084.94 2144.81,1120.63 C2144.81,1120.63 2192.97,1153.88 2265.69,1129.55" id="Fill-25" fill="#E7F0FD"></path>
            <path d="M2223.18,847.6 C2223.17,847.57 2223.17,847.55 2223.17,847.55 C2220.49,835.49 2220.85,824.01 2221.41,817.61 L2221.41,817.6 C2221.69,814.32 2222.02,812.37 2222.02,812.37 L2221.41,812.18 L2169.77,796.45 C2169.02,812.85 2168.07,825.01 2167.06,834.03 C2166.58,838.3 2166.1,841.87 2165.61,844.84 C2175.6,849.2 2183.87,852.21 2190.7,854.2 C2209.22,859.58 2217.24,857.44 2220.68,854.2 C2223.55,851.52 2223.23,848.07 2223.18,847.6" id="Fill-26" fill="#D9935C"></path>
            <path d="M2221.41,812.181 L2221.41,817.612 C2221.41,817.612 2186.98,818.002 2167.06,834.032 C2168.07,825.011 2169.02,812.855 2169.77,796.454 L2221.41,812.181" id="Fill-27" fill="#CB8757"></path>
            <path d="M2235.66,815.916 C2235.66,815.916 2173.11,828.479 2165.88,789.402 C2158.66,750.325 2145.72,725.628 2185.36,715.955 C2224.99,706.282 2235.53,719.754 2241.11,732.211 C2246.7,744.668 2251.75,811.641 2235.66,815.916" id="Fill-28" fill="#D9935C"></path>
            <path d="M2216.97,702.538 C2211.68,702.661 2207.81,702.977 2205.06,703.43 C2191.32,699.055 2165.08,695.584 2144.16,721.848 C2114.4,759.202 2178.63,821.88 2178.63,821.88 C2170.06,810.484 2167.58,769.965 2199.85,749.705 C2219.85,737.146 2220.66,723.859 2218.38,715.572 C2218.94,715.74 2219.27,715.834 2219.27,715.834 C2219.27,715.834 2245.04,718.999 2246.52,748.755 C2246.52,748.755 2257.8,701.589 2216.97,702.538" id="Fill-29" fill="#2B478B"></path>
            <path d="M2106.92,1134.59 C2128.39,1138.99 2162.66,1136.76 2188.06,1129.49 C2196.51,1127.08 2203.96,1124.09 2209.59,1120.63 C2232.3,1106.67 2243.33,1003.29 2239.4,964.161 C2235.52,925.087 2165.8,843.641 2165.8,843.641 C2149.66,855.609 2146.46,884.665 2136.78,921.215 C2113.49,1009.16 2106.92,1134.59 2106.92,1134.59" id="Fill-30" fill="#B64C41"></path>
            <path d="M2106.92,1134.59 C2128.39,1138.99 2162.66,1136.76 2188.06,1129.49 C2197.39,1116.23 2204.84,1100.04 2208.83,1080.27 C2220.39,1023.24 2174.8,961.345 2136.78,921.215 C2113.49,1009.16 2106.92,1134.59 2106.92,1134.59" id="Fill-31" fill="#AA413E"></path>
            <path d="M2120.21,1112.16 L2170.8,1148.67 C2177.05,1153.19 2185.87,1151.76 2190.39,1145.5 L2246.81,1067.33 C2251.33,1061.07 2249.91,1052.25 2243.65,1047.74 L2193.06,1011.22 C2186.8,1006.71 2177.98,1008.13 2173.46,1014.39 L2117.04,1092.56 C2112.52,1098.82 2113.95,1107.64 2120.21,1112.16" id="Fill-32" fill="#233862"></path>
            <path d="M2198.82,1086.89 C2198.82,1086.89 2223.54,1084.39 2226.6,1088.56 C2229.66,1092.73 2226.88,1108.84 2212.99,1110.51 C2199.09,1112.18 2183.26,1100.79 2183.26,1100.79 L2198.82,1086.89" id="Fill-33" fill="#DA935B"></path>
            <path d="M2165.8,843.641 C2165.8,843.641 2125.75,850.021 2106.68,889.623 C2087.61,929.224 2067.08,1031.16 2072.21,1040.69 C2077.34,1050.23 2138.95,1101.56 2189.55,1108.16 C2189.55,1108.16 2200.55,1094.23 2199.81,1081.76 C2199.81,1081.76 2131.61,1039.23 2125.75,1027.49 C2119.88,1015.76 2177.81,918.223 2177.08,901.356 C2176.35,884.489 2165.8,843.641 2165.8,843.641" id="Fill-34" fill="#B64C41"></path>
            <path d="M715.33,1799.09 L613.81,1799.09 C613.38,1798.99 613.03,1798.87 612.77,1798.75 C609.92,1797.4 608.55,1792.06 607.97,1785.74 C606.91,1774.31 608.43,1759.67 608.43,1759.67 C608.43,1759.67 643.04,1730.77 648.33,1752.23 C653.62,1773.69 682.42,1782.77 698.76,1785.07 C714.01,1787.21 715.24,1797.71 715.33,1799.09" id="Fill-35" fill="#233862"></path>
            <path d="M624.54,1799.09 L517.53,1799.09 C510.76,1793.02 514.24,1759.67 514.24,1759.67 C514.24,1759.67 548.85,1730.77 554.14,1752.23 C559.43,1773.69 588.23,1782.77 604.56,1785.07 C605.76,1785.24 606.9,1785.46 607.97,1785.74 C618.75,1788.49 623.19,1796.12 624.54,1799.09" id="Fill-36" fill="#233862"></path>
            <path d="M563.218,1217.94 C563.218,1217.94 563.3,1221.82 563.452,1228.79 C564.421,1273.74 568.263,1447.51 571.906,1544.39 C572.058,1547.92 572.186,1551.33 572.314,1554.65 C572.385,1556.4 572.455,1558.16 572.525,1559.9 C574.708,1606.74 581.061,1652.6 587.483,1689.28 C595.668,1736.06 603.982,1767.91 603.982,1767.91 C635.188,1774.23 655.412,1762.37 655.412,1762.37 C655.412,1762.37 663.826,1689.77 667.026,1645.83 C668.077,1631.57 673.215,1582.93 679.66,1523.75 C684.658,1477.99 690.438,1425.92 695.739,1378.57 C696.02,1376.05 696.288,1373.53 696.58,1371.04 C705.139,1294.49 712.227,1232.13 712.227,1232.13 L657.054,1226.88 L563.218,1217.94" id="Fill-37" fill="#2B478B"></path>
            <path d="M587.483,1689.28 L679.66,1523.75 C684.658,1477.99 690.438,1425.92 695.739,1378.57 C696.02,1376.05 696.288,1373.53 696.58,1371.04 C705.139,1294.49 712.227,1232.13 712.227,1232.13 L657.054,1226.88 L563.452,1228.79 L587.483,1689.28" id="Fill-38" fill="#233862"></path>
            <path d="M702.032,1232.54 C702.032,1232.54 650.457,1487.49 608.433,1610.53 C566.409,1733.58 565.885,1767.76 565.885,1767.76 C565.885,1767.76 527.324,1776.12 510.335,1766.41 C510.335,1766.41 500.627,1533.16 526.056,1471.21 C542.875,1430.23 555.74,1343.02 551.368,1311.62 C546.995,1280.21 542.915,1217.21 542.915,1217.21 L702.032,1232.54" id="Fill-39" fill="#2B478B"></path>
            <path d="M639.41,890.284 L582.06,874.114 C582.06,874.114 591.8,850.284 595.18,825.444 C597.05,811.654 596.97,797.554 592.18,787.044 C591.89,786.394 591.57,785.744 591.24,785.114 C589.05,781.034 590.38,779.164 593.3,778.704 C598.35,777.894 608.15,781.313 612.68,784.804 C612.82,784.914 612.95,785.023 613.08,785.134 C619.66,790.624 651.36,806.724 653.01,807.563 C653.06,807.584 653.08,807.594 653.08,807.594 C653.08,807.594 653.13,807.834 653.19,808.284 L653.2,808.313 C653.2,808.313 653.22,808.394 653.24,808.534 C653.42,809.734 653.75,811.974 654.08,815.044 C655.68,830.344 657.05,865.904 639.41,890.284" id="Fill-40" fill="#D9935C"></path>
            <path d="M556.632,1246.18 C568.823,1254.81 588.032,1257.92 609.19,1257.6 C633.898,1257.2 661.246,1252.1 683.105,1245.56 C694.864,1242.04 705.022,1238.12 712.355,1234.3 C745.016,1217.27 740.38,1194.6 739.598,1109.75 C738.804,1023.14 685.504,911.188 675.906,892.446 C658.823,859.085 582.182,871.396 582.182,871.396 C565.367,879.453 559.388,906.322 557.753,941.423 C555.932,980.412 559.47,1029.57 559.47,1074.4 C559.47,1111.46 552.476,1144.23 547.384,1171.4 C540.787,1206.69 537.389,1232.54 556.632,1246.18" id="Fill-41" fill="#E2923D"></path>
            <path d="M547.384,1171.4 C562.132,1202.48 591.173,1237.46 609.19,1257.6 C633.898,1257.2 661.246,1252.1 683.105,1245.56 C692.306,1223.54 696.335,1186.78 687.834,1126.09 C681.354,1079.83 634.121,893.723 634.121,893.723 C595.984,888.748 572.268,909.521 557.753,941.423 C555.932,980.412 559.47,1029.57 559.47,1074.4 C559.47,1111.46 552.476,1144.23 547.384,1171.4" id="Fill-42" fill="#D88029"></path>
            <path d="M610.207,1308.54 C610.207,1297.76 618.978,1288.99 629.759,1288.99 L658.415,1288.99 C669.195,1288.99 677.966,1297.76 677.966,1308.54 L677.966,1319.3 L610.207,1319.3 L610.207,1308.54 Z M725.436,1319.3 L690.811,1319.3 L690.811,1308.54 C690.811,1290.67 676.278,1276.14 658.415,1276.14 L629.759,1276.14 C611.896,1276.14 597.362,1290.67 597.362,1308.54 L597.362,1319.3 L562.737,1319.3 C552.346,1319.3 543.844,1327.8 543.844,1338.2 L543.844,1426.37 C543.844,1436.76 552.346,1445.26 562.737,1445.26 L725.436,1445.26 C735.827,1445.26 744.33,1436.76 744.33,1426.37 L744.33,1338.2 C744.33,1327.8 735.827,1319.3 725.436,1319.3 Z" id="Fill-43" fill="#D6716B"></path>
            <path d="M654.003,1254.46 C654.003,1254.46 673.95,1292.92 663.977,1307.88 C654.003,1322.84 618.386,1303.61 615.536,1295.06 C612.687,1286.51 615.536,1245.2 615.536,1245.2 L654.003,1254.46" id="Fill-44" fill="#DA935B"></path>
            <path d="M568.685,953.569 C568.685,953.569 576.106,1059.42 576.012,1103.22 C575.917,1147.01 610.767,1263.49 610.767,1263.49 C610.767,1263.49 633.829,1265.34 642.878,1264.17 C653.305,1262.83 659.518,1258.04 659.518,1258.04 C659.518,1258.04 651.864,1120.42 666.467,1067.67 C681.071,1014.93 681.839,908.985 681.839,908.985 C681.839,908.985 673.727,886.115 625.168,893.333 C567.562,901.896 568.685,953.569 568.685,953.569" id="Fill-45" fill="#E2923D"></path>
            <path d="M592.671,822.694 C592.671,822.694 579.602,864.009 582.182,871.396 C582.182,871.396 653.075,880.94 681.839,908.985 C681.839,908.985 672.491,868.716 660.985,858.648 C649.479,848.581 592.671,822.694 592.671,822.694" id="Fill-46" fill="#D88029"></path>
            <path d="M654.08,815.044 C647.65,814.994 607.58,815.124 596.33,824.644 C595.92,824.984 595.54,825.254 595.18,825.444 C597.05,811.654 596.97,797.554 592.18,787.044 C592.59,783.824 591.71,780.324 593.3,778.704 C596.88,775.063 608.06,781.144 612.68,784.804 C612.82,784.914 612.95,785.023 613.08,785.134 C619.66,790.624 651.36,806.724 653.01,807.563 L653.19,808.284 L653.2,808.313 C653.2,808.313 653.22,808.394 653.24,808.534 C653.42,809.734 653.75,811.974 654.08,815.044" id="Fill-47" fill="#CB8757"></path>
            <path d="M679.886,812.498 C679.886,812.498 613.612,825.184 606.347,783.791 C599.083,742.397 585.636,716.157 627.643,706.307 C669.649,696.457 680.665,710.806 686.45,724.032 C692.236,737.258 696.938,808.131 679.886,812.498" id="Fill-48" fill="#D9935C"></path>
            <path d="M594.412,801.776 C594.412,801.776 597.859,799.149 584.442,778.813 C571.025,758.478 564.66,764.058 564.496,742.388 C564.331,720.718 556.269,707.705 581.417,693.599 C606.564,679.493 602.559,666.423 617.647,663.296 C632.735,660.169 654.68,672.603 667.627,669.984 C680.574,667.366 721.137,720.158 695.155,732.653 C695.155,732.653 683.086,733.254 674.61,728.028 C666.134,722.802 635.03,717.517 631.394,726.972 C627.757,736.428 608.056,794.469 594.412,801.776" id="Fill-49" fill="#233862"></path>
            <path d="M1406,1786.33 L1412.32,1779.01 C1412.32,1779.01 1376.7,1739.47 1365.76,1719.35 L1335.69,1663.81 L1296.32,1673.55 L1346.29,1744.36 L1406,1786.33" id="Fill-50" fill="#D9935C"></path>
            <path d="M1734.6,1788.26 C1734.21,1792.46 1731.88,1795.16 1728.19,1796.77 C1728.18,1796.78 1728.16,1796.79 1728.13,1796.79 C1721.31,1799.78 1709.88,1799.1 1697.51,1797.43 C1695.93,1797.23 1694.51,1797.05 1693.23,1796.94 C1692.9,1796.91 1692.56,1796.88 1692.24,1796.86 C1691.98,1796.83 1691.72,1796.82 1691.47,1796.8 C1679.16,1795.99 1680.12,1799.78 1656.6,1799.67 C1629.79,1799.52 1620.72,1790.49 1619.49,1786.64 C1618.46,1783.38 1630.2,1780.85 1643.33,1777.93 C1643.96,1777.79 1644.59,1777.64 1645.24,1777.5 C1646.98,1777.11 1648.74,1776.71 1650.49,1776.31 C1666.14,1772.64 1681.63,1768 1686.76,1752.97 C1692.19,1737.03 1690.9,1689.72 1690.9,1689.72 L1738.39,1689.72 C1738.39,1689.72 1725.92,1741.98 1727.23,1757.04 C1727.94,1765.09 1731.78,1767.38 1733.27,1774.34 C1733.37,1774.83 1733.47,1775.32 1733.56,1775.81 C1734.28,1779.88 1734.99,1784.06 1734.6,1788.26" id="Fill-51" fill="#AD7041"></path>
            <path d="M1111.78,714.269 C1111.78,714.269 1135.73,688.774 1165.79,712.964 C1165.79,712.964 1148.29,709.938 1111.78,714.269" id="Fill-52" fill="#89BCCB"></path>
            <path d="M1789.85,1276.92 C1785.84,1299.42 1780.13,1322.67 1775.16,1346.85 C1767.18,1385.72 1761.16,1427.03 1767.32,1471.5 C1768.11,1477.22 1768.54,1483.54 1768.64,1490.33 C1769.83,1568.93 1734.71,1711.38 1734.71,1711.38 C1734.71,1711.38 1725.17,1715.5 1709.18,1714.71 C1700.95,1714.3 1688.32,1708.99 1688.32,1708.99 C1688.32,1708.99 1685,1620.67 1684.8,1501.9 C1684.65,1415.8 1667.75,1302.44 1664.33,1235.83 C1662.27,1195.52 1666.75,1141.81 1666.75,1141.81 C1666.75,1141.81 1736.76,1085.52 1761.91,1114.32 C1786.75,1142.78 1804.85,1192.76 1789.85,1276.92" id="Fill-53" fill="#415DA5"></path>
            <path d="M1767.32,1471.5 C1768.11,1477.22 1768.54,1483.54 1768.64,1490.33 C1716.2,1414.37 1704.61,1248.72 1704.61,1248.72 L1762.2,1276.67 C1762.2,1276.67 1768.51,1307.73 1775.16,1346.85 C1767.18,1385.72 1761.16,1427.03 1767.32,1471.5" id="Fill-54" fill="#355493"></path>
            <path d="M1166.41,698.438 C1157.33,693.276 1146.44,692.713 1138.83,693.163 C1140.79,691.14 1144.65,690.403 1144.65,690.403 C1139.93,689.701 1129.39,694.383 1129.39,694.383 C1063.73,669.083 1053.41,765.758 1054.79,788.219 C1056.16,810.677 1032.73,818.012 998.571,835.707 C933.395,869.472 927.67,914.684 927.67,914.684 C928.178,914.983 928.708,915.325 929.272,915.713 C932.505,910.234 939.163,899.947 944.776,898.395 C944.563,898.893 938.142,912.558 935.746,920.389 C954.974,935.016 990.944,967.425 1016.01,990.403 C1015.9,985.913 1016.08,979.536 1017.72,976.169 L1020.82,994.819 C1034.23,1007.15 1043.48,1015.83 1043.48,1015.83 C1041.83,997.678 1125.57,901.897 1169.26,873.213 C1179.9,857.555 1183.68,829.894 1183.96,827.716 C1182.12,849.648 1178.37,861.951 1175.02,868.878 C1212.02,834.827 1190.48,712.115 1166.41,698.438" id="Fill-55" fill="#233862"></path>
            <path d="M1170,874.813 C1170.22,874.911 1145.58,885.806 1129.55,881.42 C1114.47,877.309 1104.61,857.755 1104.82,857.711 C1111.21,856.442 1113.05,847.667 1112.91,809.954 L1115.8,810.522 L1164.35,820.135 C1164.35,820.135 1163.24,835.413 1163.21,849.805 C1163.18,861.889 1167.23,873.522 1170,874.813" id="Fill-56" fill="#D9935C"></path>
            <path d="M1164.35,820.135 C1164.35,820.135 1163.24,835.413 1163.21,849.805 C1136.04,849.039 1121.68,824.258 1115.8,810.522 L1164.35,820.135" id="Fill-57" fill="#CB8757"></path>
            <path d="M1110.79,805.237 C1110.79,805.237 1096.55,782.744 1093.13,763.51 C1090.69,749.778 1097.69,698.88 1148.84,706.21 C1148.84,706.21 1163.69,707.674 1177.66,717.105 C1188.76,724.605 1204.79,740.798 1186.87,785.214 L1182.21,800.218 L1110.79,805.237" id="Fill-58" fill="#233862"></path>
            <path d="M1357.83,1699.94 L1332.1,1700.73 L1304.25,1701.58 C1304.25,1701.58 1239.91,1629.95 1203.82,1515.13 C1202.98,1512.46 1202.09,1509.76 1201.15,1507.02 C1181.4,1449.43 1140.46,1377.15 1118.88,1311.72 C1115.45,1301.29 1112.36,1291.48 1109.6,1282.2 C1108.71,1279.23 1107.85,1276.31 1107.03,1273.43 C1091.13,1218.18 1086.52,1181.91 1082.28,1143.15 L1238.08,1144.4 C1238.08,1144.4 1263.24,1409.05 1357.83,1699.94" id="Fill-59" fill="#89BCCB"></path>
            <path d="M1227.15,1160.82 C1227.15,1160.82 1160.44,1194.71 1081.15,1169.76 C1080.22,1169.47 1065.12,994.238 1063.29,974.103 C1058.45,920.802 1054.17,879 1054.17,879 C1075.77,874.084 1086.24,863.526 1108.73,855.094 C1113.9,861.534 1129.36,867.75 1143.08,867.442 C1158.87,867.094 1164.1,860.382 1163.28,853 C1180.11,862.365 1193.43,871.164 1193.43,871.164 C1207.74,896.01 1227.15,1160.82 1227.15,1160.82" id="Fill-60" fill="#E7F0FD"></path>
            <path d="M1173.42,833.763 C1173.42,833.763 1109.15,834.823 1109.1,794.788 C1109.06,754.752 1100.73,727.926 1141.77,725.556 C1182.8,723.187 1190.79,738.455 1194.06,751.814 C1197.32,765.174 1190.13,832.455 1173.42,833.763" id="Fill-61" fill="#D9935C"></path>
            <path d="M1192.14,729.554 C1182.23,717.532 1174.73,720.146 1170.52,723.756 C1156.63,703.002 1112.73,733.016 1112.73,733.016 C1108.43,761.742 1087.71,778.198 1087.71,778.198 C1087.71,778.198 1099.43,785.435 1126.43,778.49 C1147.69,773.024 1163.11,742.773 1168.72,730.133 C1172.54,733.53 1180.61,741.381 1183.02,749.07 C1186.23,759.265 1187.67,780.252 1193.79,779.538 C1193.79,779.538 1207.04,747.613 1192.14,729.554" id="Fill-62" fill="#233862"></path>
            <path d="M1432.04,900.209 C1432.04,900.209 1441.1,867.555 1477,872.168 C1481.12,873.458 1493.16,878.26 1485.47,891.147 C1479.8,900.648 1477.34,895.746 1468.42,908.513 C1459.5,921.28 1449.81,924.164 1438.75,922.636 L1432.04,900.209" id="Fill-63" fill="#D9935C"></path>
            <path d="M1125.26,1777.04 C1123.08,1765.01 1118.92,1744.21 1118.92,1744.21 L1119.88,1670.39 L1075.05,1670.39 L1091.82,1741.05 C1092.17,1744.33 1093.09,1757.05 1088.38,1770.55 C1088.38,1770.55 1084.07,1790.17 1103.39,1790.53 C1122.71,1790.9 1127.45,1789.07 1125.26,1777.04" id="Fill-64" fill="#D9935C"></path>
            <path d="M1127.09,1799.09 L1086.96,1799.09 C1084.84,1789.2 1088.38,1770.89 1088.38,1770.89 C1110.25,1790.94 1123.94,1770.39 1123.94,1770.39 C1127.31,1778.5 1127.12,1797.1 1127.09,1799.09" id="Fill-65" fill="#B64C41"></path>
            <path d="M1434.24,1799 L1384.98,1799 C1380.54,1795.24 1376.33,1787.39 1371.15,1777.03 C1368.24,1771.21 1361.72,1768.01 1355.02,1766.25 L1355.02,1799.17 L1344.91,1799.17 L1344.86,1799 L1335.34,1764.18 C1329.03,1752.59 1333.9,1742.25 1338.34,1733.09 C1343.51,1733.08 1358.33,1736.45 1384.64,1766.09 C1393.29,1775.83 1402.83,1779.3 1412.32,1779.01 C1412.45,1779.1 1412.58,1779.16 1412.71,1779.22 C1427.93,1786.07 1432.73,1794.51 1434.24,1799" id="Fill-66" fill="#B64C41"></path>
            <path d="M1432.04,900.209 C1432.04,900.209 1389.86,923.799 1374.79,930.599 C1366.19,934.473 1346.43,943.732 1332.5,950.275 C1323.63,954.444 1313.1,952.166 1306.72,944.72 C1283.86,918.006 1224.43,860.104 1163.28,853 C1163.28,853 1200.36,944.816 1201.45,963.407 C1202.54,981.999 1205.83,1267.43 1205.83,1267.43 C1205.83,1267.43 1203.64,1280.55 1228.79,1275.08 C1253.94,1269.61 1260.51,1264.15 1260.51,1264.15 C1260.51,1264.15 1236.45,1088.08 1243.01,1026.84 C1244.3,1014.76 1243.12,1001.19 1240.41,987.176 C1240.62,987.306 1240.83,987.44 1241.05,987.569 C1278.16,1009.95 1321.75,1019.91 1321.75,1019.91 C1321.75,1019.91 1350.51,1007.36 1391.05,978.775 C1393.89,976.771 1396.8,974.682 1399.75,972.517 C1413.89,962.156 1438.75,922.64 1438.75,922.64 L1432.04,900.209" id="Fill-67" fill="#B64C41"></path>
            <path d="M1332.1,1700.73 L1304.25,1701.58 C1304.25,1701.58 1239.91,1629.95 1203.82,1515.13 C1202.98,1512.46 1202.09,1509.76 1201.15,1507.02 C1181.4,1449.43 1140.46,1377.15 1118.88,1311.72 C1115.45,1301.29 1112.36,1291.48 1109.6,1282.2 C1108.71,1279.23 1107.85,1276.31 1107.03,1273.43 L1129.97,1256.02 C1129.97,1256.02 1198.86,1367.57 1220.18,1472.54 C1238.71,1563.72 1312.9,1673.45 1332.1,1700.73" id="Fill-68" fill="#6A99A7"></path>
            <path d="M1132.37,1482.32 C1132.76,1533.37 1130.18,1650.73 1123.53,1699.32 L1098.86,1699.32 C1085.22,1699.32 1078.42,1699.12 1078.42,1699.12 C1061.74,1614.64 1049.88,1544.74 1041.24,1484.5 C1034.15,1435.07 1027.85,1392.7 1023.01,1356.21 C1018.13,1319.5 1014.74,1288.76 1013.52,1262.79 C1013.34,1258.7 1013.2,1254.72 1013.12,1250.86 C1013.04,1246.98 1013.02,1243.2 1013.05,1239.54 L1147.68,1226.42 C1145.98,1315.86 1132.15,1452.65 1132.37,1482.32" id="Fill-69" fill="#89BCCB"></path>
            <path d="M1098.86,1699.32 C1085.22,1699.32 1078.42,1699.12 1078.42,1699.12 C1061.74,1614.64 1049.88,1544.74 1041.24,1484.5 C1034.15,1435.07 1027.85,1392.7 1023.01,1356.21 C1018.13,1319.5 1014.74,1288.76 1013.52,1262.79 L1062.92,1291.85 C1062.92,1291.85 1031.39,1302.97 1043.42,1387.17 C1055.45,1471.38 1082.11,1687.4 1098.86,1699.32" id="Fill-70" fill="#6A99A7"></path>
            <path d="M1105.21,1261.96 C1105.21,1261.96 1095.73,1296.22 1062.93,1291.85 C1030.12,1287.47 983.464,1267.79 983.464,1267.79 C983.464,1267.79 997.484,1223.49 1014.92,1165.29 C1036.02,1094.83 1062.15,1003.99 1074.46,946.697 C1077.92,930.643 1080.28,917.235 1081.16,907.634 L1108.73,855.094 C1108.73,855.094 1148.96,945.91 1151.15,968.875 C1153.33,991.841 1105.21,1261.96 1105.21,1261.96" id="Fill-71" fill="#B64C41"></path>
            <path d="M1103.76,1016.99 C1102.29,1054.18 1093.55,1126.35 1015.54,1164.99 C1015.33,1165.09 1015.12,1165.2 1014.92,1165.29 C1036.02,1094.83 1062.15,1003.99 1074.46,946.697 C1088.79,968.11 1104.56,996.521 1103.76,1016.99" id="Fill-72" fill="#AA413E"></path>
            <path d="M1886.1,1787.92 C1885.71,1792.1 1883.39,1794.79 1879.7,1796.39 C1879.69,1796.4 1879.66,1796.41 1879.64,1796.41 C1872.82,1799.39 1861.38,1798.71 1849.02,1797.05 C1847.44,1796.84 1846.01,1796.66 1844.74,1796.55 C1844.4,1796.52 1844.07,1796.49 1843.74,1796.47 C1843.48,1796.45 1843.22,1796.43 1842.98,1796.41 C1830.67,1795.6 1831.63,1799.38 1808.11,1799.26 C1781.3,1799.11 1772.23,1790.1 1771,1786.27 C1769.96,1783.01 1781.7,1780.49 1794.83,1777.59 C1795.46,1777.45 1796.1,1777.3 1796.74,1777.16 C1798.49,1776.78 1800.25,1776.37 1801.99,1775.98 C1817.64,1772.32 1833.13,1767.71 1838.25,1752.73 C1843.68,1736.84 1835.9,1690.42 1835.9,1690.42 L1879.89,1686.77 C1879.89,1686.77 1877.17,1739.67 1878.48,1754.67 C1879.19,1762.69 1883.28,1767.1 1884.76,1774.04 C1884.87,1774.53 1884.97,1775.02 1885.06,1775.5 C1885.78,1779.57 1886.49,1783.73 1886.1,1787.92" id="Fill-73" fill="#AD7041"></path>
            <path d="M1879.87,1715.4 C1879.87,1715.4 1868.56,1720.75 1860.42,1722.38 C1852.28,1724.01 1835.36,1720.83 1835.36,1720.83 C1832.31,1686.63 1825.22,1633.14 1811.45,1572.79 C1795.76,1504.08 1772.42,1422.88 1739.88,1345.99 C1732.93,1329.57 1704.27,1251.84 1699.41,1232.22 C1684.7,1172.96 1699.47,1179.34 1699.47,1179.34 L1828.02,1164.26 C1828.02,1164.26 1843.85,1172.4 1851.15,1256.09 C1853.33,1281.15 1853.6,1389.37 1856.89,1409.89 C1860,1429.32 1863.65,1445.47 1867.93,1455.97 C1891.81,1514.59 1879.87,1715.4 1879.87,1715.4" id="Fill-74" fill="#415DA5"></path>
            <path d="M1886.07,1788.08 C1885.68,1792.35 1883.34,1795.09 1879.64,1796.73 C1879.63,1796.74 1879.61,1796.75 1879.59,1796.75 C1872.36,1799.36 1861.06,1798.8 1848.9,1797.33 C1847.32,1797.13 1845.88,1796.99 1844.58,1796.9 C1844.25,1796.87 1843.91,1796.84 1843.59,1796.82 C1843.33,1796.79 1843.07,1796.78 1842.81,1796.76 C1832.94,1796.1 1831.58,1798.44 1819.33,1799.33 L1799.89,1799.33 C1779.12,1797.64 1771.74,1789.93 1770.63,1786.44 C1769.59,1783.12 1781.37,1780.55 1794.53,1777.59 C1798,1779.31 1814.56,1786.91 1835.15,1784.88 C1853.26,1783.12 1871.75,1775.77 1884.74,1773.94 C1884.85,1774.44 1884.94,1774.93 1885.03,1775.43 C1885.75,1779.57 1886.46,1783.81 1886.07,1788.08" id="Fill-75" fill="#B84C42"></path>
            <path d="M1734.56,1788.36 C1734.16,1792.71 1731.82,1795.51 1728.13,1797.21 C1728.12,1797.22 1728.09,1797.22 1728.07,1797.22 C1720.84,1799.9 1709.57,1799.36 1697.45,1797.9 C1695.86,1797.71 1694.43,1797.57 1693.13,1797.47 C1692.79,1797.44 1692.46,1797.41 1692.13,1797.39 C1691.88,1797.37 1691.61,1797.36 1691.37,1797.33 C1683.65,1796.82 1681.14,1798.18 1674.54,1799.25 L1641.77,1799.25 C1626.16,1796.62 1620.31,1790.15 1619.35,1787 C1618.33,1783.61 1630.09,1780.96 1643.23,1777.88 C1646.68,1779.65 1663.2,1787.35 1683.76,1785.22 C1701.83,1783.38 1720.3,1775.82 1733.27,1773.92 C1733.37,1774.43 1733.47,1774.93 1733.55,1775.44 C1734.26,1779.67 1734.96,1784 1734.56,1788.36" id="Fill-76" fill="#B84C42"></path>
            <path d="M1943.48,1164.78 L1951.67,1178.05 C1955.92,1182.93 1957.06,1185.67 1960.43,1187.32 C1968.57,1191.33 1983.59,1201.6 1984.72,1223.18 C1984.72,1223.18 1984.47,1235.39 1976.28,1231.44 C1968.09,1227.48 1971.67,1227.85 1960.03,1222.51 C1948.39,1217.18 1944.08,1200.22 1943.06,1194.44 L1933.56,1181.97 L1943.48,1164.78" id="Fill-77" fill="#AD7041"></path>
            <path d="M1683.17,779.343 C1678.83,743.883 1689.91,687.142 1760.68,696.208 C1831.45,705.275 1853.76,774.83 1839.48,805.757 C1825.21,836.684 1860.03,844.142 1870.96,877.399 C1880.35,905.97 1883.63,941.444 1898.83,957.364 C1947.82,1008.69 1851.79,1087.62 1793.89,1070.98 C1688.44,1040.66 1674.86,1036.14 1678.6,953.284 C1680.52,910.833 1713.55,894.386 1692.58,882.104 C1641.92,852.433 1693,859.582 1683.17,779.343" id="Fill-78" fill="#AA443E"></path>
            <path d="M1802.67,1112.36 C1817.11,1149.06 1822.6,1181.64 1822.6,1181.64 L1665.94,1183.59 C1665.94,1183.59 1668.13,1057.59 1660.91,1013 C1653.69,968.41 1704.45,870.39 1704.45,870.39 C1705.38,870.39 1711.38,869.29 1721.98,868.65 C1723.79,863.61 1724.95,858.48 1725.66,853.58 C1727.2,843.15 1726.73,833.78 1726.23,828.57 C1725.96,825.86 1725.7,824.28 1725.7,824.28 L1776.88,808.7 L1778.36,808.25 C1778.99,822.17 1779.77,833.06 1780.61,841.58 C1783.05,866.44 1785.97,871.12 1786.88,872 C1800.09,873.95 1814.74,876.8 1830.74,880.89 C1830.74,880.89 1788.23,1075.65 1802.67,1112.36" id="Fill-79" fill="#D9935C"></path>
            <path d="M1904.37,1074.19 C1896.52,1020.05 1867.44,908.879 1847.9,890.697 C1830.62,874.617 1793.36,873.144 1793.36,873.144 C1793.36,873.145 1793.36,873.145 1793.36,873.146 L1793.35,873.145 C1785.61,885.27 1759.11,915.392 1726.23,909.964 C1708.49,907.037 1704.89,875.133 1704.49,870.868 L1704.61,870.388 C1704.61,870.388 1704.55,870.396 1704.45,870.41 C1704.45,870.407 1704.45,870.387 1704.45,870.387 C1704.32,870.413 1704.2,870.439 1704.07,870.465 C1698.89,871.231 1657.66,877.939 1645.44,898.992 C1627.37,930.075 1607.7,1023.35 1588.38,1021.97 C1579.51,1021.34 1490.24,987.786 1490.24,987.786 C1490.24,987.786 1475.37,1001.72 1478.22,1018.81 C1478.22,1018.81 1522.29,1048.33 1559.57,1067.16 C1564.73,1069.77 1569.77,1072.17 1574.53,1074.26 C1587.97,1080.16 1599.29,1083.58 1605.47,1082.12 C1607.25,1081.7 1609.13,1080.9 1611.09,1079.76 C1619.17,1075.09 1628.61,1064.83 1637.66,1053.14 C1643.67,1045.36 1649.51,1036.96 1654.67,1029.13 C1654.78,1028.97 1654.88,1028.81 1654.99,1028.64 C1657.2,1058.29 1659.42,1090.56 1657.12,1115.85 C1655.37,1135.09 1654.1,1176.75 1657.4,1187.52 C1664.28,1209.96 1714.86,1215.89 1762.06,1213.54 C1784.31,1212.44 1800.03,1211.17 1811.47,1208.53 C1828.06,1204.72 1835.65,1198.04 1841.11,1184.87 C1846.32,1172.32 1822.24,1113.41 1819.95,1087.63 C1817.86,1064.25 1821.44,1045.23 1827.34,1026.54 C1844,1065.02 1860.95,1092.55 1863.17,1098.52 C1867.85,1111.07 1938.99,1190.47 1938.99,1190.47 C1938.99,1190.47 1944.74,1189.29 1949.3,1186.31 C1954,1183.24 1956.36,1179.17 1956.36,1179.17 C1943.8,1149.35 1904.37,1074.19 1904.37,1074.19" id="Fill-80" fill="#EBBA56"></path>
            <path d="M1841.11,1184.87 C1835.65,1198.04 1828.06,1204.72 1811.47,1208.53 C1789.28,1204.26 1774.65,1163.44 1767.11,1143.35 C1758.43,1120.19 1803.66,1001.15 1816.15,1002.23 C1825.43,1003.04 1827.03,1018.79 1827.34,1026.54 C1821.33,1045.42 1817.84,1064.02 1819.95,1087.63 C1822.24,1113.41 1846.32,1172.32 1841.11,1184.87" id="Fill-81" fill="#E7A329"></path>
            <path d="M1490.88,997.147 C1490.88,997.147 1483.26,978.484 1474.88,977.723 C1466.5,976.961 1439.84,972.771 1437.93,976.58 C1436.03,980.389 1437.93,994.1 1443.65,999.052 C1449.36,1004 1484.78,1012 1484.78,1012 L1490.88,997.147" id="Fill-82" fill="#D9935C"></path>
            <path d="M1654.67,1029.13 C1649.51,1036.96 1643.67,1045.36 1637.66,1053.14 C1629.03,1063.76 1619.51,1074.03 1611.09,1079.76 C1609.13,1080.9 1607.25,1081.7 1605.47,1082.12 C1599.29,1083.58 1587.97,1080.16 1574.53,1074.26 C1582.53,1074.85 1590.38,1074.57 1598.1,1073.91 C1611.63,1072.76 1615.56,1058.12 1636.94,1036.16 C1649.72,1023.04 1653.6,1025.06 1654.67,1029.13" id="Fill-83" fill="#E7A329"></path>
            <path d="M1170.07,1161.92 L1165.34,1161.63 C1165.34,1161.49 1166.19,1147.71 1165.29,1133.07 C1164.17,1114.59 1160.75,1102.68 1155.69,1099.53 L1158.2,1095.5 C1173.21,1104.84 1170.44,1156.11 1170.07,1161.92" id="Fill-84" fill="#415DA5"></path>
            <path d="M1778.33,811 C1778.33,811 1758.47,846.81 1725.66,853.58 C1727.2,843.15 1726.73,833.78 1726.23,828.57 C1725.96,825.86 1725.7,824.28 1725.7,824.28 L1776.88,808.7 L1778.33,811" id="Fill-85" fill="#CB8757"></path>
            <path d="M1228.8,1091.5 C1226.27,1088.97 1218.04,1089.92 1218.04,1089.92 L1184.8,1095.8 C1184.8,1095.8 1148.38,1087.39 1111.33,1074.91 C1103.74,1072.36 1096.41,1069.98 1089.75,1067.94 L1081.1,1116.72 C1084.82,1117.58 1088.75,1118.42 1092.89,1119.22 C1117.04,1123.86 1147.39,1119.22 1187.87,1119.22 C1187.88,1119.22 1203.74,1123.84 1211.84,1121.28 C1219.94,1118.72 1231.33,1094.03 1228.8,1091.5" id="Fill-86" fill="#D9935C"></path>
            <path d="M1111.33,1074.92 C1105.66,1083.79 1096.21,1100.71 1092.89,1119.22 C1054.32,1111.79 1034.25,1100.96 1025.28,1094.71 C1022.99,1092.53 1020.69,1090.34 1018.39,1088.14 C998.988,1049.45 1017.19,940.49 1017.19,940.49 C1026,898.153 1040.23,879.806 1040.23,879.806 C1063,868.296 1108.63,855.142 1108.73,855.094 L1082.27,961.544 L1067.34,1062.06 C1076.9,1063.82 1093.41,1068.88 1111.33,1074.92" id="Fill-87" fill="#B64C41"></path>
            <path d="M1177.54,1160.5 L1111.49,1150.17 C1128.15,1109.15 1157.8,1088.83 1158.13,1088.63 L1152.81,1087.25 C1151.43,1088.14 1123.18,1106.83 1106.6,1149.4 L1093.85,1147.41 C1087.66,1146.44 1081.8,1150.71 1080.83,1156.9 L1072.32,1211.32 C1071.35,1217.51 1075.62,1223.37 1081.81,1224.34 L1165.5,1237.44 C1171.7,1238.4 1177.56,1234.13 1178.52,1227.94 L1187.04,1173.52 C1188.01,1167.33 1183.73,1161.47 1177.54,1160.5" id="Fill-88" fill="#415DA5"></path>
            <path d="M1711.95,827.859 C1711.95,827.859 1774.99,840.52 1782.27,801.14 C1789.55,761.761 1802.59,736.874 1762.65,727.126 C1722.71,717.378 1712.08,730.955 1706.46,743.507 C1700.83,756.061 1695.74,823.551 1711.95,827.859" id="Fill-89" fill="#D9935C"></path>
            <path d="M1794.47,729.736 C1783.81,717.735 1768.1,699.915 1768.1,699.915 C1768.1,699.915 1736.76,689.428 1705.67,720.073 C1692.27,733.276 1694.29,759.229 1701.47,774.289 C1701.47,774.289 1712.49,742.019 1732.55,734.98 C1737.01,733.413 1741.25,730.803 1745.14,727.696 C1747.59,733.831 1752.5,742.513 1762.39,753.315 C1783.12,775.98 1779.08,821.813 1779.08,821.813 C1779.08,821.813 1813.12,750.707 1794.47,729.736" id="Fill-90" fill="#AA443E"></path>
            <path d="M1731.59,808.484 C1731.59,808.484 1729.9,813.158 1718.04,811.036 C1718.04,811.036 1708.07,809.257 1708.99,804.012 C1708.99,804.012 1719.15,801.379 1731.59,808.484" id="Fill-91" fill="#FFFFFF"></path>
            <path d="M1391.05,978.775 C1350.51,1007.36 1321.75,1019.91 1321.75,1019.91 C1321.75,1019.91 1278.16,1009.95 1241.05,987.569 C1237.92,980.95 1236.22,972.621 1246.22,970.959 C1263.32,968.11 1307.95,1009.42 1319.35,1008 C1327.28,1007.01 1367.37,989.402 1391.05,978.775" id="Fill-92" fill="#AA413E"></path>
            <path d="M2995.83,1148.55 L3006.84,1151.96 C3006.84,1151.96 3036.41,1141 3051.74,1171.69 C3051.74,1171.69 3057.12,1184.83 3046.85,1185.37 C3036.59,1185.9 3040.44,1184.22 3025.99,1185.29 C3011.54,1186.36 2997.85,1180.7 2993.21,1171.17 L2979.86,1161 L2995.83,1148.55" id="Fill-93" fill="#AB7041"></path>
            <path d="M2783.22,1799 L2681.7,1799 C2681.27,1798.9 2680.92,1798.78 2680.66,1798.66 C2675.27,1796.11 2675.18,1779.24 2675.69,1768.52 C2675.94,1763.33 2676.33,1759.58 2676.33,1759.58 C2676.33,1759.58 2710.93,1730.68 2716.22,1752.14 C2717.23,1756.26 2719.11,1759.92 2721.61,1763.16 C2732.11,1776.83 2753.45,1783.12 2766.65,1784.98 C2781.9,1787.12 2783.13,1797.62 2783.22,1799" id="Fill-94" fill="#233862"></path>
            <path d="M2780.12,1232.04 C2780.12,1232.04 2779.83,1234.59 2779.3,1239.29 C2777.19,1257.83 2771.3,1309.87 2764.47,1370.95 C2764.18,1373.43 2763.92,1375.95 2763.63,1378.48 C2760.7,1404.69 2757.62,1432.35 2754.6,1459.58 C2754.29,1462.43 2753.97,1465.27 2753.66,1468.11 C2751.55,1487.15 2749.5,1505.88 2747.55,1523.66 C2741.1,1582.84 2735.97,1631.48 2734.92,1645.74 C2731.72,1689.68 2723.31,1762.28 2723.31,1762.28 C2723.31,1762.28 2722.73,1762.62 2721.61,1763.16 C2716.4,1765.65 2699.58,1772.35 2675.69,1768.52 C2674.44,1768.32 2673.17,1768.09 2671.87,1767.82 C2671.87,1767.82 2663.56,1735.96 2655.38,1689.19 C2653.7,1679.59 2652.03,1669.37 2650.43,1658.66 C2648.04,1642.69 2645.83,1625.63 2644.04,1607.99 C2643.82,1605.83 2643.61,1603.66 2643.4,1601.48 C2642.11,1587.82 2641.08,1573.86 2640.42,1559.81 C2640.34,1558.07 2640.28,1556.3 2640.21,1554.55 C2640.08,1551.23 2639.96,1547.82 2639.8,1544.3 C2639.74,1542.42 2639.66,1540.51 2639.58,1538.58 L2639.52,1536.63 C2636.54,1454.36 2633.47,1324.37 2632.01,1258.7 C2631.72,1246.04 2631.49,1235.77 2631.34,1228.7 C2631.31,1227.43 2631.28,1226.26 2631.27,1225.19 C2631.16,1220.45 2631.11,1217.85 2631.11,1217.85 L2724.95,1226.78 L2780.12,1232.04" id="Fill-95" fill="#2B478B"></path>
            <path d="M2705.62,1368.87 C2697.5,1432.75 2664.21,1593.3 2650.43,1658.66 C2648.04,1642.69 2645.83,1625.63 2644.04,1607.99 C2643.82,1605.83 2643.61,1603.66 2643.4,1601.48 C2642.11,1587.82 2641.08,1573.86 2640.42,1559.81 C2640.34,1558.07 2640.28,1556.3 2640.21,1554.55 C2640.08,1551.23 2639.96,1547.82 2639.8,1544.3 C2639.74,1542.42 2639.66,1540.51 2639.58,1538.58 L2639.52,1536.63 C2636.54,1454.36 2633.47,1324.37 2632.01,1258.7 C2677.01,1245.1 2719.43,1260.12 2705.62,1368.87" id="Fill-96" fill="#233862"></path>
            <path d="M2639.55,1799 L2532.54,1799 C2527.94,1794.88 2528.07,1778.17 2528.62,1767.87 C2528.89,1763.01 2529.25,1759.58 2529.25,1759.58 C2529.25,1759.58 2563.85,1730.68 2569.15,1752.14 C2570.71,1758.47 2574.32,1763.72 2579.05,1768.04 C2590.35,1778.37 2608.06,1783.36 2619.57,1784.98 C2632.85,1786.84 2638.06,1795.73 2639.55,1799" id="Fill-97" fill="#233862"></path>
            <path d="M2719.43,1225.47 C2719.43,1225.47 2665.46,1487.39 2623.44,1610.44 C2581.42,1733.49 2580.89,1767.67 2580.89,1767.67 C2580.89,1767.67 2542.33,1776.03 2525.34,1766.32 C2525.34,1766.32 2515.64,1533.06 2541.06,1471.11 C2557.88,1430.14 2561.92,1410.52 2557.49,1316.64 C2556,1284.96 2557.92,1217.12 2557.92,1217.12 L2719.43,1225.47" id="Fill-98" fill="#2B478B"></path>
            <path d="M2495.03,1215.79 L2495.82,1240.54 C2495.82,1240.54 2472.33,1267.32 2495.66,1298.67 C2495.66,1298.67 2506.15,1310.81 2511.12,1299.94 C2516.08,1289.07 2512.77,1292.44 2520.07,1277.29 C2527.37,1262.15 2521.42,1242.59 2517.6,1235.89 L2518.66,1216.01 L2495.03,1215.79" id="Fill-99" fill="#AB7041"></path>
            <path d="M2735.1,833.846 C2725.89,809.28 2727.86,794.039 2727.86,794.039 L2672.48,755.978 C2667.69,802.993 2659.36,815.616 2659.79,834.148 C2659.8,834.392 2681.78,858.747 2701,858.667 C2719.46,858.589 2735.19,834.085 2735.1,833.846" id="Fill-100" fill="#9C5F33"></path>
            <path d="M3004.93,1148.77 C3004.93,1148.77 3002.57,1154.88 2999,1160.42 C2995.2,1166.3 2988.7,1169.89 2988.7,1169.89 C2988.7,1169.89 2944.06,1146.3 2907.62,1122.03 C2904.7,1120.09 2901.84,1118.15 2899.06,1116.2 C2884.88,1106.33 2872.78,1096.66 2866.32,1088.72 C2865.54,1087.76 2864.73,1086.73 2863.9,1085.66 C2843.29,1059.02 2807.57,997.892 2807.57,997.892 C2807.57,997.892 2807.18,1000.37 2806.53,1005.57 C2806.53,1005.58 2806.53,1005.58 2806.53,1005.58 C2805.04,1017.41 2802.14,1043.28 2799.2,1085.95 C2794.8,1150.09 2808.33,1228.88 2780.12,1232.04 C2650.36,1246.57 2607.4,1234.66 2566.62,1225.18 C2564.55,1224.69 2562.48,1224.22 2560.41,1223.75 C2552.81,1222.04 2547.17,1215.94 2549.23,1208.43 C2556.35,1182.46 2570.52,1129.29 2572.71,1110.09 C2576.11,1080.33 2579.83,1000.48 2580.37,988.699 C2580.42,987.74 2580.44,987.236 2580.44,987.236 L2579.77,988.737 L2579.76,988.832 C2579.17,991.453 2566.69,1047.8 2562.37,1081.23 C2558.94,1107.71 2519.42,1228.12 2519.42,1228.12 L2494.05,1227.2 C2494.05,1227.2 2486.66,1097.69 2497.48,1063.64 C2501.42,1051.25 2511.01,856.126 2566.2,836.563 C2582.65,830.741 2623.19,818.994 2661.85,815.917 C2663.37,834.255 2688.39,847.968 2708.43,847.968 C2722.29,847.968 2730.23,841.114 2734.1,831 C2783.67,843.944 2818.67,854.625 2834.82,871.881 C2882.91,923.267 2896.99,1007.58 2922.49,1050.22 C2938.98,1077.78 3004.93,1148.77 3004.93,1148.77" id="Fill-101" fill="#739AF0"></path>
            <path d="M2740.97,796.085 C2740.97,796.085 2673.56,799.165 2672.29,757.158 C2671.02,715.151 2661.46,687.258 2704.44,683.515 C2747.43,679.772 2756.28,695.548 2760.11,709.466 C2763.95,723.384 2758.47,794.201 2740.97,796.085" id="Fill-102" fill="#AB7041"></path>
            <path d="M3005.93,1182.33 C3005.93,1182.33 3028.9,1190.31 3036.6,1185.17 C3044.31,1180.04 3018.2,1176.36 3017.99,1170.92 C3017.77,1165.49 3005.93,1182.33 3005.93,1182.33" id="Fill-103" fill="#AB7041"></path>
            <path d="M2669.4,775.892 C2669.4,775.892 2672.85,773.266 2659.43,752.93 C2646.02,732.594 2639.65,738.174 2639.49,716.504 C2639.32,694.834 2628.28,674.999 2653.43,660.894 C2678.58,646.788 2686.66,644.077 2701.75,640.95 C2716.83,637.824 2745.59,642.154 2754.54,651.872 C2770.71,669.44 2768.59,714.692 2760.11,709.466 C2751.64,704.24 2710.02,691.632 2706.38,701.088 C2702.75,710.544 2683.05,768.585 2669.4,775.892" id="Fill-104" fill="#233862"></path>
            <path d="M2907.62,1122.03 C2904.7,1120.09 2876.01,1100.71 2870.41,1093.25 L2863.9,1085.66 C2843.29,1059.02 2807.57,997.892 2807.57,997.892 C2807.57,997.892 2807.18,1000.37 2806.53,1005.57 C2806.48,1004.96 2804.44,978.708 2818.83,991.216 C2833.39,1003.88 2878.68,1087.01 2890.37,1102.65 C2894.93,1108.74 2901.41,1115.75 2907.62,1122.03" id="Fill-105" fill="#4A75CB"></path>
            <path d="M2615.61,1203.94 C2605.48,1218.91 2584.19,1223.83 2566.62,1225.18 C2564.55,1224.69 2562.48,1224.22 2560.41,1223.75 C2552.81,1222.04 2547.17,1215.94 2549.23,1208.43 C2556.35,1182.46 2570.52,1129.29 2572.71,1110.09 C2576.11,1080.33 2579.83,1000.48 2580.37,988.699 C2584.31,988.661 2606.62,991.301 2611.81,1055.23 C2617.5,1125.44 2634.48,1176.02 2615.61,1203.94" id="Fill-106" fill="#4A75CB"></path>
            <path d="M3776.6,1799.09 L230.584,1799.09 C229.258,1799.09 228.173,1800.18 228.173,1801.5 L228.173,1802.55 C228.173,1803.88 229.258,1804.97 230.584,1804.97 L3776.6,1804.97 C3777.92,1804.97 3779.01,1803.88 3779.01,1802.55 L3779.01,1801.5 C3779.01,1800.18 3777.92,1799.09 3776.6,1799.09" id="Fill-107" fill="#283250"></path>
        </g>
    </g>
</svg>