<?xml version="1.0" encoding="UTF-8"?>
<svg width="250px" height="200px" viewBox="0 0 250 200" version="1.1" xmlns="http://www.w3.org/2000/svg" xmlns:xlink="http://www.w3.org/1999/xlink">
    <!-- Generator: Sketch 52.6 (67491) - http://www.bohemiancoding.com/sketch -->
    <title>EmptyInbox</title>
    <desc>Created with Sketch.</desc>
    <g id="EmptyInbox" stroke="none" stroke-width="1" fill="none" fill-rule="evenodd">
        <path d="M176,135 L93,135 C89.1340068,135 86,131.865993 86,128 C86,124.134007 89.1340068,121 93,121 L54,121 C50.1340068,121 47,117.865993 47,114 C47,110.134007 50.1340068,107 54,107 L94,107 C97.8659932,107 101,103.865993 101,100 C101,96.1340068 97.8659932,93 94,93 L69,93 C65.1340068,93 62,89.8659932 62,86 C62,82.1340068 65.1340068,79 69,79 L109,79 C105.134007,79 102,75.8659932 102,72 C102,68.1340068 105.134007,65 109,65 L207,65 C210.865993,65 214,68.1340068 214,72 C214,75.8659932 210.865993,79 207,79 L167,79 C170.865993,79 174,82.1340068 174,86 C174,89.8659932 170.865993,93 167,93 L189,93 C192.865993,93 196,96.1340068 196,100 C196,103.865993 192.865993,107 189,107 L178.826087,107 C173.951574,107 170,110.134007 170,114 C170,116.577329 172,118.910662 176,121 C179.865993,121 183,124.134007 183,128 C183,131.865993 179.865993,135 176,135 Z M207,107 C203.134007,107 200,103.865993 200,100 C200,96.1340068 203.134007,93 207,93 C210.865993,93 214,96.1340068 214,100 C214,103.865993 210.865993,107 207,107 Z" id="Background" fill-opacity="0.15" fill="#A780FF"></path>
        <path d="M118.118551,113.306628 C118.040412,113.859855 118,114.425208 118,115 C118,121.627417 123.372583,127 130,127 C136.627417,127 142,121.627417 142,115 C142,114.425208 141.959588,113.859855 141.881449,113.306628 L171,113.306628 L171,140 C171,141.656854 169.656854,143 168,143 L92,143 C90.3431458,143 89,141.656854 89,140 L89,113.306628 L118.118551,113.306628 Z" id="Path" fill="#FFFFFF"></path>
        <path d="M143,113 C143,120.179702 137.179702,126 130,126 C122.820298,126 117,120.179702 117,113 C117,112.767399 117.006109,112.536224 117.018175,112.306628 L89,112.306628 L98.5604397,84.0388533 C98.9725967,82.8202106 100.115851,82 101.402305,82 L158.597695,82 C159.884149,82 161.027403,82.8202106 161.43956,84.0388533 L171,112.306628 L142.981825,112.306628 C142.993891,112.536224 143,112.767399 143,113 Z" id="Path" fill="#FFFFFF"></path>
        <path d="M141.097561,113.954545 C141.097561,119.502497 136.129014,125 130,125 C123.870986,125 118.902439,119.502497 118.902439,113.954545 C118.902439,113.774808 118.907654,112.596173 118.917954,112.418758 L98,112.418758 L106.161351,92.5754775 C106.513192,91.6337991 107.489141,91 108.587333,91 L151.412667,91 C152.510859,91 153.486808,91.6337991 153.838649,92.5754775 L162,112.418758 L141.082046,112.418758 C141.092346,112.596173 141.097561,113.774808 141.097561,113.954545 Z" id="Path" fill-opacity="0.25" fill="#A780FF"></path>
        <path d="M90.25,112.512287 L90.25,139 C90.25,139.966498 91.0335017,140.75 92,140.75 L168,140.75 C168.966498,140.75 169.75,139.966498 169.75,139 L169.75,112.512287 L160.25545,84.4393311 C160.015025,83.7284562 159.348127,83.25 158.597695,83.25 L101.402305,83.25 C100.651873,83.25 99.9849751,83.7284562 99.7445502,84.4393311 L90.25,112.512287 Z" id="Rectangle" stroke="#4300D2" stroke-width="2.5"></path>
        <path d="M95.5737305,112 L98,112 L95.5737305,112 Z M103,112 C106.93657,112 111.184873,112 115.744911,112 C117.621191,112 117.621191,113.318576 117.621191,114 C117.621191,120.627417 123.117382,126 129.897276,126 C136.677171,126 142.173361,120.627417 142.173361,114 C142.173361,113.318576 142.173361,112 144.049641,112 L169,112" id="Shape" stroke="#4300D2" stroke-width="2.5" stroke-linecap="round" stroke-linejoin="round"></path>
        <path d="M129.099609,55 L129.099609,71.7558594 L129.099609,55 Z M103,59.3027344 L114.099609,71.7558594 L103,59.3027344 Z M155.099609,59.3027344 L144,71.7558594 L155.099609,59.3027344 Z" id="lines" stroke="#A780FF" stroke-width="2.5" stroke-linecap="round" stroke-linejoin="round"></path>
    </g>
</svg>