<?xml version="1.0" encoding="UTF-8"?>
<svg width="250px" height="200px" viewBox="0 0 250 200" version="1.1" xmlns="http://www.w3.org/2000/svg" xmlns:xlink="http://www.w3.org/1999/xlink">
    <!-- Generator: Sketch 52.6 (67491) - http://www.bohemiancoding.com/sketch -->
    <title>NoGPS</title>
    <desc>Created with Sketch.</desc>
    <g id="NoGPS" stroke="none" stroke-width="1" fill="none" fill-rule="evenodd">
        <path d="M176,135 L93,135 C89.1340068,135 86,131.865993 86,128 C86,124.134007 89.1340068,121 93,121 L54,121 C50.1340068,121 47,117.865993 47,114 C47,110.134007 50.1340068,107 54,107 L94,107 C97.8659932,107 101,103.865993 101,100 C101,96.1340068 97.8659932,93 94,93 L69,93 C65.1340068,93 62,89.8659932 62,86 C62,82.1340068 65.1340068,79 69,79 L109,79 C105.134007,79 102,75.8659932 102,72 C102,68.1340068 105.134007,65 109,65 L207,65 C210.865993,65 214,68.1340068 214,72 C214,75.8659932 210.865993,79 207,79 L167,79 C170.865993,79 174,82.1340068 174,86 C174,89.8659932 170.865993,93 167,93 L189,93 C192.865993,93 196,96.1340068 196,100 C196,103.865993 192.865993,107 189,107 L178.826087,107 C173.951574,107 170,110.134007 170,114 C170,116.577329 172,118.910662 176,121 C179.865993,121 183,124.134007 183,128 C183,131.865993 179.865993,135 176,135 Z M207,107 C203.134007,107 200,103.865993 200,100 C200,96.1340068 203.134007,93 207,93 C210.865993,93 214,96.1340068 214,100 C214,103.865993 210.865993,107 207,107 Z" id="Background" fill-opacity="0.15" fill="#A780FF"></path>
        <path d="M72.770671,93 L71.8228029,93 C65.7592394,93 60.84375,88.0917143 60.84375,82.037037 C60.84375,75.9823598 65.7592394,71.0740741 71.8228029,71.0740741 C71.861946,71.0740741 71.9010412,71.0742786 71.9400876,71.0746867 C72.9161252,62.58311 79.864638,56 88.2913823,56 C97.1731223,56 104.412689,63.3132025 104.747835,72.4661317 C110.118229,72.8127937 114.84375,78.0395888 114.84375,83.4897099 C114.84375,87.9647189 111.52973,93 107.603566,93 L80.3020171,93" id="cloud" stroke="#A780FF" stroke-width="2.5" fill="#FFFFFF" stroke-linecap="round"></path>
        <path d="M133.689195,151.551552 C157.075701,122.715966 168.75,101.46207 168.75,88 C168.75,66.5989659 151.401034,49.25 130,49.25 C108.598966,49.25 91.25,66.5989659 91.25,88 C91.25,101.462071 102.924299,122.715967 126.310806,151.551553 C127.963269,153.589038 130.954561,153.901161 132.992046,152.248701 C133.247982,152.04113 133.481623,151.807488 133.689195,151.551552 Z" id="Shape" stroke="#4300D2" stroke-width="2.5" fill="#FFFFFF"></path>
        <path d="M112.700936,147 C110.216612,147.444781 107.922433,147.982411 105.866218,148.597861 M101.711288,150.0861 C97.4908011,151.903306 95,154.142558 95,156.564648 C95,162.63978 110.670034,167.564648 130,167.564648 C149.329966,167.564648 165,162.63978 165,156.564648 C165,152.534543 158.104095,149.010634 147.818421,147.094849" id="Shape" stroke="#A780FF" stroke-width="2.5" stroke-linecap="round"></path>
        <path d="M130,106.75 C140.355339,106.75 148.75,98.3553391 148.75,88 C148.75,77.6446609 140.355339,69.25 130,69.25 C119.644661,69.25 111.25,77.6446609 111.25,88 C111.25,92.2881059 112.6922,96.3526084 115.300918,99.6417053 C116.572658,101.245127 118.099075,102.633143 119.81594,103.745999 C122.825384,105.696693 126.333034,106.75 130,106.75 Z" id="Oval" stroke="#4300D2" stroke-width="2.5" fill-opacity="0.15" fill="#A780FF"></path>
        <path d="M169.955219,56.0497735 L168.196699,56.8033009 L168.950227,55.044781 C169.920205,52.7811264 169.920205,50.2188736 168.950227,47.955219 L168.196699,46.1966991 L169.955219,46.9502265 C172.218874,47.9202047 174.781126,47.9202047 177.044781,46.9502265 L178.803301,46.1966991 L178.049773,47.955219 C177.079795,50.2188736 177.079795,52.7811264 178.049773,55.044781 L178.803301,56.8033009 L177.044781,56.0497735 C174.781126,55.0797953 172.218874,55.0797953 169.955219,56.0497735 Z" id="Star" stroke="#A780FF" stroke-width="2.5" stroke-linejoin="round" transform="translate(173.500000, 51.500000) rotate(-315.000000) translate(-173.500000, -51.500000) "></path>
        <path d="M152.690674,135 L152,135 C147.581722,135 144,131.418278 144,127 C144,122.581722 147.581722,119 152,119 C152.028522,119 152.057009,119.000149 152.085461,119.000447 C152.796661,112.803891 157.859766,108 164,108 C170.471771,108 175.746957,113.336661 175.991164,120.015826 C179.904357,120.268795 183.347656,124.082943 183.347656,128.060059 C183.347656,131.325606 180.932861,135 178.072021,135 L158.178467,135" id="cloud" stroke="#A780FF" stroke-width="2.5" fill="#FFFFFF" stroke-linecap="round"></path>
    </g>
</svg>