<?xml version="1.0" encoding="UTF-8"?>
<svg width="250px" height="200px" viewBox="0 0 250 200" version="1.1" xmlns="http://www.w3.org/2000/svg" xmlns:xlink="http://www.w3.org/1999/xlink">
    <!-- Generator: Sketch 52.6 (67491) - http://www.bohemiancoding.com/sketch -->
    <title>NoImages</title>
    <desc>Created with Sketch.</desc>
    <g id="NoImages" stroke="none" stroke-width="1" fill="none" fill-rule="evenodd">
        <path d="M154,134 L63,134 C59.1340068,134 56,130.865993 56,127 C56,123.134007 59.1340068,120 63,120 L24,120 C20.1340068,120 17,116.865993 17,113 C17,109.134007 20.1340068,106 24,106 L64,106 C67.8659932,106 71,102.865993 71,99 C71,95.1340068 67.8659932,92 64,92 L39,92 C35.1340068,92 32,88.8659932 32,85 C32,81.1340068 35.1340068,78 39,78 L79,78 C75.1340068,78 72,74.8659932 72,71 C72,67.1340068 75.1340068,64 79,64 L136,64 C139.865993,64 143,67.1340068 143,71 C143,74.8659932 139.865993,78 136,78 L200,78 C203.865993,78 207,81.1340068 207,85 C207,88.8659932 203.865993,92 200,92 L222,92 C225.865993,92 229,95.1340068 229,99 C229,102.865993 225.865993,106 222,106 L203,106 C199.134007,106 196,109.134007 196,113 C196,116.865993 199.134007,120 203,120 L209,120 C212.865993,120 216,123.134007 216,127 C216,130.865993 212.865993,134 209,134 L157,134 C156.485125,134 155.983234,133.944412 155.5,133.83891 C155.016766,133.944412 154.514875,134 154,134 Z M226,134 C222.134007,134 219,130.865993 219,127 C219,123.134007 222.134007,120 226,120 C229.865993,120 233,123.134007 233,127 C233,130.865993 229.865993,134 226,134 Z" id="Background" fill-opacity="0.15" fill="#A780FF"></path>
        <g id="Photo2" transform="translate(65.982524, 40.987062)">
            <path d="M84.6076109,5.63876273 L88.717753,5.63876273 C90.926892,5.63876273 92.717753,7.42962374 92.717753,9.63876273 L92.717753,89.6387627 C92.717753,91.8479017 90.926892,93.6387627 88.717753,93.6387627 L9.71775296,93.6387627 C7.50861396,93.6387627 5.71775296,91.8479017 5.71775296,89.6387627 C5.71775296,86.2286573 5.71775296,83.9371018 5.71775296,82.7640963" id="Rectangle" fill="#FFFFFF" transform="translate(49.217753, 49.638763) rotate(-188.000000) translate(-49.217753, -49.638763) "></path>
            <path d="M22.8226274,93.7253372 L19.1267509,94.2506421 C17.1402734,94.5329855 15.3061659,93.1517787 15.0301572,91.1656303 L5.03499816,19.2408346 C4.75898946,17.2546862 6.14559842,15.4157103 8.13207595,15.1333669 L79.1695819,5.03661487 C81.1560594,4.75427147 82.9901669,6.13547832 83.2661756,8.12162671 L84.1250929,14.3023639 C84.171569,14.6368045 87.2401128,36.8362496 93.3307242,80.9006992 C93.6365638,83.1133496 92.1108721,85.1577934 89.9230021,85.4670913 C89.8995019,85.4704135 89.875973,85.4735241 89.852418,85.4764229 L22.8226274,93.7253372 Z" id="Rectangle" fill-opacity="0.25" fill="#A780FF"></path>
            <path d="M84.6076109,5.63876273 L88.717753,5.63876273 C90.926892,5.63876273 92.717753,7.42962374 92.717753,9.63876273 L92.717753,89.6387627 C92.717753,91.8479017 90.926892,93.6387627 88.717753,93.6387627 L9.71775296,93.6387627 C7.50861396,93.6387627 5.71775296,91.8479017 5.71775296,89.6387627 C5.71775296,86.2286573 5.71775296,83.9371018 5.71775296,82.7640963" id="Rectangle" stroke="#4300D2" stroke-width="2.5" stroke-linecap="round" transform="translate(49.217753, 49.638763) rotate(-188.000000) translate(-49.217753, -49.638763) "></path>
            <path d="M88.5174755,15.3925331 L89.0174755,18.5129378" id="Line" stroke="#4300D2" stroke-width="2.5" stroke-linecap="round"></path>
        </g>
        <g id="Photo1" transform="translate(89.159180, 55.685547)">
            <path d="M9,6.25 C7.48121694,6.25 6.25,7.48121694 6.25,9 L6.25,89 C6.25,90.5187831 7.48121694,91.75 9,91.75 L88,91.75 C89.5187831,91.75 90.75,90.5187831 90.75,89 L90.75,9 C90.75,7.48121694 89.5187831,6.25 88,6.25 L9,6.25 Z" id="Rectangle" stroke="#4300D2" stroke-width="2.5" fill="#FFFFFF" transform="translate(48.500000, 49.000000) rotate(6.000000) translate(-48.500000, -49.000000) "></path>
            <path d="M17.5749065,14.0301296 L80.5749065,14.0301296 C82.2317608,14.0301296 83.5749065,15.3732753 83.5749065,17.0301296 L83.5749065,70.0301296 C83.5749065,71.6869838 82.2317608,73.0301296 80.5749065,73.0301296 L17.5749065,73.0301296 C15.9180523,73.0301296 14.5749065,71.6869838 14.5749065,70.0301296 L14.5749065,17.0301296 C14.5749065,15.3732753 15.9180523,14.0301296 17.5749065,14.0301296 Z" id="Rectangle" fill="#FFFFFF" transform="translate(49.074907, 43.530130) rotate(6.000000) translate(-49.074907, -43.530130) "></path>
            <path d="M20.7658081,57.0468773 L29.8188573,49.4509488 C31.3283752,48.1843932 33.5354287,48.2058451 35.0200427,49.5015027 L42.961649,56.4323298 C43.3580136,56.7782465 43.9546175,56.7579061 44.3265019,56.385797 L58.2830507,42.4208152 C59.844676,40.8582463 62.3773358,40.8574814 63.9399047,42.4191067 C64.0408792,42.5200202 64.136379,42.6262668 64.2259942,42.7373906 L75.7658081,57.0468773 L77.4413454,59.2758556 L77.6079757,67.4278455 C77.6192623,67.9800149 77.1807902,68.4367862 76.6286208,68.4480728 C76.619833,68.4482524 76.6110433,68.4483162 76.602254,68.4482641 L19.2900541,68.1083616 C18.7451178,68.1051297 18.3030965,67.6661775 18.2960679,67.121277 L18.1898759,58.8886433 L20.7658081,57.0468773 Z" id="Path-2" fill-opacity="0.25" fill="#A780FF" transform="translate(47.909417, 53.862794) rotate(6.000000) translate(-47.909417, -53.862794) "></path>
            <path d="M17.5749065,15.2801296 C16.6084082,15.2801296 15.8249065,16.0636313 15.8249065,17.0301296 L15.8249065,70.0301296 C15.8249065,70.9966279 16.6084082,71.7801296 17.5749065,71.7801296 L80.5749065,71.7801296 C81.5414049,71.7801296 82.3249065,70.9966279 82.3249065,70.0301296 L82.3249065,17.0301296 C82.3249065,16.0636313 81.5414049,15.2801296 80.5749065,15.2801296 L17.5749065,15.2801296 Z" id="Rectangle" stroke="#4300D2" stroke-width="2.5" transform="translate(49.074907, 43.530130) rotate(6.000000) translate(-49.074907, -43.530130) "></path>
            <circle id="Oval" stroke="#4300D2" stroke-width="2.5" fill-opacity="0.25" fill="#A780FF" transform="translate(32.872851, 30.263880) rotate(6.000000) translate(-32.872851, -30.263880) " cx="32.8728507" cy="30.2638797" r="6"></circle>
            <path d="M19.3150117,58.8251303 C21.735464,56.748509 25.3661423,53.633577 30.2070468,49.4803343 C31.7165647,48.2137787 33.9236182,48.2352306 35.4082322,49.5308882 L43.3498384,56.4617153 C43.746203,56.8076321 44.342807,56.7872916 44.7146914,56.4151825 L58.6712402,42.4502007 C60.2328655,40.8876318 62.7655253,40.8868669 64.3280942,42.4484922 C64.4290686,42.5494057 64.5245684,42.6556524 64.6141836,42.7667761 C71.552057,51.5770025 75.8315693,57.0114448 77.4527206,59.070103" id="Path-2" stroke="#4300D2" stroke-width="2.5" stroke-linecap="round" transform="translate(48.383866, 50.173938) rotate(6.000000) translate(-48.383866, -50.173938) "></path>
        </g>
    </g>
</svg>