<?xml version="1.0" encoding="UTF-8"?>
<svg width="250px" height="200px" viewBox="0 0 250 200" version="1.1" xmlns="http://www.w3.org/2000/svg" xmlns:xlink="http://www.w3.org/1999/xlink">
    <!-- Generator: Sketch 52.6 (67491) - http://www.bohemiancoding.com/sketch -->
    <title>NoItemsCart</title>
    <desc>Created with Sketch.</desc>
    <g id="NoItemsCart" stroke="none" stroke-width="1" fill="none" fill-rule="evenodd">
        <path d="M154,134 L63,134 C59.1340068,134 56,130.865993 56,127 C56,123.134007 59.1340068,120 63,120 L24,120 C20.1340068,120 17,116.865993 17,113 C17,109.134007 20.1340068,106 24,106 L64,106 C67.8659932,106 71,102.865993 71,99 C71,95.1340068 67.8659932,92 64,92 L39,92 C35.1340068,92 32,88.8659932 32,85 C32,81.1340068 35.1340068,78 39,78 L79,78 C75.1340068,78 72,74.8659932 72,71 C72,67.1340068 75.1340068,64 79,64 L136,64 C139.865993,64 143,67.1340068 143,71 C143,74.8659932 139.865993,78 136,78 L200,78 C203.865993,78 207,81.1340068 207,85 C207,88.8659932 203.865993,92 200,92 L222,92 C225.865993,92 229,95.1340068 229,99 C229,102.865993 225.865993,106 222,106 L203,106 C199.134007,106 196,109.134007 196,113 C196,116.865993 199.134007,120 203,120 L209,120 C212.865993,120 216,123.134007 216,127 C216,130.865993 212.865993,134 209,134 L157,134 C156.485125,134 155.983234,133.944412 155.5,133.83891 C155.016766,133.944412 154.514875,134 154,134 Z M226,134 C222.134007,134 219,130.865993 219,127 C219,123.134007 222.134007,120 226,120 C229.865993,120 233,123.134007 233,127 C233,130.865993 229.865993,134 226,134 Z" id="Background" fill-opacity="0.15" fill="#A780FF"></path>
        <polygon id="Rectangle" fill-opacity="0.25" fill="#A780FF" points="96 66 163 66 157 75 165 81 94 81 103 75"></polygon>
        <path d="M70,145.5 L91.4541016,145.5 L70,145.5 Z M57.1279297,145.5 L64,145.5 L57.1279297,145.5 Z M200.12793,145.5 L203,145.5 L200.12793,145.5 Z M173,145.5 L195.427734,145.5 L173,145.5 Z" id="line" stroke="#4300D2" stroke-width="2.5" stroke-linecap="round" stroke-linejoin="round"></path>
        <path d="M93.006144,123.214844 L93.006144,83 C93.006144,81.3431458 94.3657942,80 96.0430077,80 L165.522507,80 C166.614646,80 167.5,80.8954305 167.5,82 L167.5,155 C167.5,157.209139 165.729293,159 163.545015,159 L96.9611293,159 C94.7768512,159 93.006144,157.209139 93.006144,155 L93.006144,140.054688 L93.006144,136 M93.006144,131.897461 L93.006144,127.393555" id="bag" stroke="#4300D2" stroke-width="2.5" fill="#FFFFFF" stroke-linecap="round"></path>
        <path d="M165,66 L165,78 C165,79.1045695 164.196409,80 163.205128,80 L96.7948718,80 C95.8035915,80 95,79.1045695 95,78 L95,66" id="Rectangle" stroke="#4300D2" stroke-width="2.5" transform="translate(130.000000, 73.000000) rotate(-180.000000) translate(-130.000000, -73.000000) "></path>
        <circle id="Oval" stroke="#4300D2" stroke-width="2.5" fill="#FFFFFF" cx="113.5" cy="97.5" r="3.5"></circle>
        <circle id="Oval" stroke="#4300D2" stroke-width="2.5" fill="#FFFFFF" cx="146.5" cy="97.5" r="3.5"></circle>
        <path d="M146,117 C146,108.163444 138.836556,101 130,101 C121.163444,101 114,108.163444 114,117" id="Oval" stroke="#4300D2" stroke-width="2.5" stroke-linecap="round" transform="translate(130.000000, 109.000000) scale(1, -1) translate(-130.000000, -109.000000) "></path>
        <path d="M96.0610352,66.9968262 L103.167839,74.0120856 C103.560886,74.4000702 103.564991,75.0332219 103.177006,75.4262694 C103.109863,75.4942882 103.033316,75.5523301 102.949701,75.5986241 L95,80" id="Path-3" stroke="#4300D2" stroke-width="2.5" stroke-linecap="round"></path>
        <path d="M157.908305,67.0693359 L164.710048,74.0066365 C165.0967,74.4009947 165.090453,75.0341289 164.696095,75.4207812 C164.630264,75.4853256 164.555824,75.5404564 164.474889,75.5846071 L156.380842,80" id="Path-3" stroke="#4300D2" stroke-width="2.5" stroke-linecap="round" transform="translate(161.008474, 73.534668) scale(-1, 1) translate(-161.008474, -73.534668) "></path>
        <path d="M156.099609,41.3027344 L145,53.7558594 L156.099609,41.3027344 Z M130,37 L130,53.7558594 L130,37 Z M104,41.3027344 L115.099609,53.7558594 L104,41.3027344 Z" id="lines" stroke="#A780FF" stroke-width="2.5" stroke-linecap="round" stroke-linejoin="round"></path>
    </g>
</svg>